<svg width="351" height="307" viewBox="0 0 351 307" fill="none" xmlns="http://www.w3.org/2000/svg">
<g clip-path="url(#clip0_22_327)">
<path d="M270.305 68.5277H81.8478C79.94 68.5255 78.111 67.7667 76.7619 66.4176C75.4129 65.0686 74.6541 63.2396 74.6519 61.3317V7.20906C74.6541 5.30125 75.4129 3.47221 76.7619 2.12318C78.111 0.774157 79.94 0.0153032 81.8478 0.013092H286.255C288.163 0.0153046 289.992 0.774157 291.341 2.12318C292.69 3.47221 293.449 5.30125 293.451 7.20906V45.3815C293.444 51.5182 291.003 57.4015 286.664 61.7407C282.325 66.08 276.441 68.5208 270.305 68.5277Z" fill="#D1D1D1"/>
<path d="M205.298 19.2617H119.24C118.748 19.2617 118.276 19.0662 117.928 18.7181C117.58 18.3701 117.384 17.8981 117.384 17.4059C117.384 16.9137 117.58 16.4416 117.928 16.0936C118.276 15.7455 118.748 15.55 119.24 15.55H205.298C205.791 15.55 206.263 15.7455 206.611 16.0936C206.959 16.4416 207.154 16.9137 207.154 17.4059C207.154 17.8981 206.959 18.3701 206.611 18.7181C206.263 19.0662 205.791 19.2617 205.298 19.2617Z" fill="white"/>
<path d="M248.863 26.8522H119.24C118.748 26.8522 118.276 26.6567 117.928 26.3086C117.58 25.9606 117.384 25.4886 117.384 24.9964C117.384 24.5042 117.58 24.0321 117.928 23.6841C118.276 23.336 118.748 23.1405 119.24 23.1405H248.863C249.355 23.1405 249.827 23.336 250.175 23.6841C250.523 24.0321 250.719 24.5042 250.719 24.9964C250.719 25.4886 250.523 25.9606 250.175 26.3086C249.827 26.6567 249.355 26.8522 248.863 26.8522Z" fill="white"/>
<path d="M248.863 35.565H119.24C118.748 35.565 118.276 35.3695 117.928 35.0215C117.58 34.6734 117.384 34.2014 117.384 33.7092C117.384 33.217 117.58 32.7449 117.928 32.3969C118.276 32.0489 118.748 31.8533 119.24 31.8533H248.863C249.355 31.8533 249.827 32.0489 250.175 32.3969C250.523 32.7449 250.719 33.217 250.719 33.7092C250.719 34.2014 250.523 34.6734 250.175 35.0215C249.827 35.3695 249.355 35.565 248.863 35.565Z" fill="white"/>
<path d="M248.863 44.2779H119.24C118.748 44.2779 118.276 44.0824 117.928 43.7343C117.58 43.3863 117.384 42.9142 117.384 42.422C117.384 41.9298 117.58 41.4578 117.928 41.1098C118.276 40.7617 118.748 40.5662 119.24 40.5662H248.863C249.355 40.5662 249.827 40.7617 250.175 41.1098C250.523 41.4578 250.719 41.9298 250.719 42.422C250.719 42.9142 250.523 43.3863 250.175 43.7343C249.827 44.0824 249.355 44.2779 248.863 44.2779Z" fill="white"/>
<path d="M248.862 52.9908H119.24C118.996 52.9912 118.754 52.9435 118.529 52.8504C118.303 52.7573 118.098 52.6207 117.926 52.4483C117.753 52.2759 117.616 52.0712 117.522 51.8458C117.429 51.6205 117.381 51.3789 117.381 51.1349C117.381 50.8909 117.429 50.6493 117.522 50.424C117.616 50.1986 117.753 49.9939 117.926 49.8215C118.098 49.6491 118.303 49.5125 118.529 49.4194C118.754 49.3263 118.996 49.2786 119.24 49.2791H248.862C249.354 49.2799 249.825 49.4758 250.173 49.8237C250.52 50.1717 250.715 50.6432 250.715 51.1349C250.715 51.6266 250.52 52.0981 250.173 52.4461C249.825 52.794 249.354 52.9899 248.862 52.9908Z" fill="white"/>
<path d="M221.312 118.327H7.19598C5.28816 118.324 3.45912 117.566 2.11009 116.216C0.761065 114.867 0.00221111 113.038 0 111.131V47.2965C0.00221111 45.3887 0.761065 43.5596 2.11009 42.2106C3.45912 40.8616 5.28816 40.1027 7.19598 40.1005H221.312C223.22 40.1027 225.049 40.8616 226.398 42.2106C227.747 43.5596 228.506 45.3887 228.508 47.2965V111.131C228.506 113.038 227.747 114.867 226.398 116.216C225.049 117.566 223.22 118.324 221.312 118.327Z" fill="#D9E2FF"/>
<path d="M200.508 113.473H12.051C10.1431 113.471 8.3141 112.712 6.96507 111.363C5.61605 110.014 4.85719 108.185 4.85498 106.277V52.1541C4.85719 50.2463 5.61605 48.4173 6.96507 47.0683C8.3141 45.7192 10.1431 44.9604 12.051 44.9582H216.458C218.366 44.9604 220.195 45.7192 221.544 47.0683C222.893 48.4173 223.652 50.2463 223.654 52.1541V90.3266C223.647 96.4632 221.206 102.347 216.867 106.686C212.528 111.025 206.645 113.466 200.508 113.473Z" fill="white"/>
<path d="M135.502 64.2068H49.4432C48.951 64.2068 48.479 64.0113 48.131 63.6633C47.7829 63.3152 47.5874 62.8432 47.5874 62.351C47.5874 61.8588 47.7829 61.3867 48.131 61.0387C48.479 60.6907 48.951 60.4951 49.4432 60.4951H135.502C135.994 60.4951 136.466 60.6907 136.814 61.0387C137.162 61.3867 137.357 61.8588 137.357 62.351C137.357 62.8432 137.162 63.3152 136.814 63.6633C136.466 64.0113 135.994 64.2068 135.502 64.2068Z" fill="#277FFE"/>
<path d="M179.066 71.7973H49.4432C48.951 71.7973 48.479 71.6018 48.131 71.2537C47.7829 70.9057 47.5874 70.4336 47.5874 69.9414C47.5874 69.4492 47.7829 68.9772 48.131 68.6291C48.479 68.2811 48.951 68.0856 49.4432 68.0856H179.066C179.558 68.0856 180.03 68.2811 180.378 68.6291C180.726 68.9772 180.922 69.4492 180.922 69.9414C180.922 70.4336 180.726 70.9057 180.378 71.2537C180.03 71.6018 179.558 71.7973 179.066 71.7973Z" fill="#D9E2FF"/>
<path d="M179.066 80.5101H49.4432C48.951 80.5101 48.479 80.3146 48.131 79.9666C47.7829 79.6185 47.5874 79.1465 47.5874 78.6543C47.5874 78.1621 47.7829 77.69 48.131 77.342C48.479 76.994 48.951 76.7984 49.4432 76.7984H179.066C179.558 76.7984 180.03 76.994 180.378 77.342C180.726 77.69 180.922 78.1621 180.922 78.6543C180.922 79.1465 180.726 79.6185 180.378 79.9666C180.03 80.3146 179.558 80.5101 179.066 80.5101Z" fill="#D9E2FF"/>
<path d="M179.066 89.223H49.4432C48.951 89.223 48.479 89.0274 48.131 88.6794C47.7829 88.3314 47.5874 87.8593 47.5874 87.3671C47.5874 86.8749 47.7829 86.4029 48.131 86.0548C48.479 85.7068 48.951 85.5113 49.4432 85.5113H179.066C179.558 85.5113 180.03 85.7068 180.378 86.0548C180.726 86.4029 180.922 86.8749 180.922 87.3671C180.922 87.8593 180.726 88.3314 180.378 88.6794C180.03 89.0274 179.558 89.223 179.066 89.223Z" fill="#D9E2FF"/>
<path d="M179.066 97.9358H49.443C49.199 97.9362 48.9573 97.8885 48.7318 97.7955C48.5063 97.7024 48.3013 97.5657 48.1286 97.3934C47.956 97.221 47.819 97.0163 47.7256 96.7909C47.6321 96.5655 47.584 96.3239 47.584 96.08C47.584 95.836 47.6321 95.5944 47.7256 95.3691C47.819 95.1437 47.956 94.9389 48.1286 94.7666C48.3013 94.5942 48.5063 94.4576 48.7318 94.3645C48.9573 94.2714 49.199 94.2237 49.443 94.2241H179.066C179.557 94.225 180.028 94.4209 180.376 94.7688C180.723 95.1167 180.918 95.5883 180.918 96.08C180.918 96.5716 180.723 97.0432 180.376 97.3911C180.028 97.7391 179.557 97.935 179.066 97.9358Z" fill="#D9E2FF"/>
<path d="M73.7784 167.768C71.0422 167.768 68.3674 166.956 66.0923 165.436C63.8173 163.916 62.044 161.755 60.9969 159.227C59.9498 156.7 59.6759 153.918 60.2097 151.234C60.7435 148.551 62.0611 146.086 63.9959 144.151C65.9307 142.216 68.3958 140.898 71.0794 140.365C73.763 139.831 76.5447 140.105 79.0726 141.152C81.6006 142.199 83.7612 143.972 85.2814 146.247C86.8015 148.522 87.6129 151.197 87.6129 153.933C87.6129 157.602 86.1554 161.121 83.5609 163.716C80.9664 166.31 77.4475 167.768 73.7784 167.768Z" fill="#D9E2FF"/>
<path d="M79.237 152.569H75.143V148.474C75.1423 148.113 74.9982 147.767 74.7424 147.511C74.4865 147.256 74.1398 147.112 73.7783 147.112C73.4168 147.112 73.0701 147.256 72.8143 147.511C72.5584 147.767 72.4143 148.113 72.4136 148.474V152.569H68.3195C67.958 152.569 67.6116 152.713 67.3563 152.969C67.1009 153.225 66.9575 153.572 66.9575 153.933C66.9575 154.295 67.1009 154.641 67.3563 154.897C67.6116 155.153 67.958 155.297 68.3195 155.298H72.4136V159.392C72.4143 159.753 72.5584 160.1 72.8143 160.355C73.0701 160.611 73.4168 160.754 73.7783 160.754C74.1398 160.754 74.4865 160.611 74.7424 160.355C74.9982 160.1 75.1423 159.753 75.143 159.392V155.298H79.237C79.4165 155.298 79.5942 155.263 79.7601 155.195C79.926 155.126 80.0768 155.026 80.2038 154.899C80.3308 154.772 80.4315 154.622 80.5003 154.456C80.569 154.29 80.6044 154.113 80.6044 153.933C80.6044 153.754 80.569 153.576 80.5003 153.41C80.4315 153.245 80.3308 153.094 80.2038 152.967C80.0768 152.841 79.926 152.74 79.7601 152.672C79.5942 152.603 79.4165 152.568 79.237 152.569Z" fill="white"/>
<path d="M114.254 167.768C111.518 167.768 108.843 166.956 106.568 165.436C104.293 163.916 102.52 161.755 101.473 159.227C100.425 156.7 100.151 153.918 100.685 151.234C101.219 148.551 102.537 146.086 104.471 144.151C106.406 142.216 108.871 140.898 111.555 140.365C114.239 139.831 117.02 140.105 119.548 141.152C122.076 142.199 124.237 143.972 125.757 146.247C127.277 148.522 128.088 151.197 128.088 153.933C128.088 157.602 126.631 161.121 124.036 163.716C121.442 166.31 117.923 167.768 114.254 167.768Z" fill="#D9E2FF"/>
<path d="M119.713 152.569H108.796C108.434 152.569 108.088 152.713 107.832 152.969C107.577 153.225 107.434 153.572 107.434 153.933C107.434 154.295 107.577 154.641 107.832 154.897C108.088 155.153 108.434 155.297 108.796 155.298H119.713C119.893 155.298 120.07 155.263 120.236 155.195C120.402 155.126 120.553 155.026 120.68 154.899C120.807 154.772 120.908 154.622 120.976 154.456C121.045 154.29 121.081 154.113 121.081 153.933C121.081 153.754 121.045 153.576 120.976 153.41C120.908 153.245 120.807 153.094 120.68 152.967C120.553 152.841 120.402 152.74 120.236 152.672C120.07 152.603 119.893 152.568 119.713 152.569Z" fill="white"/>
<path d="M154.73 167.768C151.993 167.768 149.319 166.956 147.044 165.436C144.768 163.916 142.995 161.755 141.948 159.227C140.901 156.7 140.627 153.918 141.161 151.234C141.695 148.551 143.012 146.086 144.947 144.151C146.882 142.216 149.347 140.898 152.031 140.365C154.714 139.831 157.496 140.105 160.024 141.152C162.552 142.199 164.712 143.972 166.233 146.247C167.753 148.522 168.564 151.197 168.564 153.933C168.564 157.602 167.107 161.121 164.512 163.716C161.918 166.31 158.399 167.768 154.73 167.768Z" fill="#277FFE"/>
<path d="M162.513 153.276L158.591 147.551C158.505 147.425 158.394 147.318 158.266 147.234C158.138 147.151 157.995 147.094 157.845 147.065C157.695 147.037 157.541 147.039 157.391 147.071C157.242 147.102 157.1 147.163 156.974 147.249C156.848 147.336 156.74 147.446 156.657 147.574C156.573 147.702 156.516 147.845 156.488 147.995C156.46 148.145 156.462 148.3 156.493 148.449C156.525 148.598 156.586 148.74 156.672 148.866L159.208 152.569H149.271C149.092 152.568 148.914 152.603 148.748 152.672C148.582 152.74 148.431 152.841 148.304 152.967C148.177 153.094 148.077 153.245 148.008 153.41C147.939 153.576 147.904 153.754 147.904 153.933C147.904 154.113 147.939 154.29 148.008 154.456C148.077 154.622 148.177 154.772 148.304 154.899C148.431 155.026 148.582 155.126 148.748 155.195C148.914 155.263 149.092 155.298 149.271 155.298H159.333L156.672 159.182C156.498 159.437 156.433 159.75 156.49 160.053C156.546 160.355 156.721 160.623 156.975 160.797C157.229 160.972 157.542 161.038 157.845 160.981C158.148 160.925 158.416 160.751 158.591 160.497L162.513 154.773C162.641 154.544 162.708 154.286 162.708 154.024C162.708 153.762 162.641 153.505 162.513 153.276Z" fill="white"/>
<path d="M243.479 298.932L237.089 298.931L234.048 274.281L243.48 274.281L243.479 298.932Z" fill="#A0616A"/>
<path d="M243.705 305.598L224.052 305.598V305.349C224.052 303.32 224.858 301.375 226.293 299.94C227.727 298.506 229.673 297.7 231.701 297.7H231.702L235.292 294.976L241.989 297.7L243.705 297.7L243.705 305.598Z" fill="#2F2E41"/>
<path d="M292.424 292.02L286.518 294.459L274.296 272.837L283.014 269.237L292.424 292.02Z" fill="#A0616A"/>
<path d="M295.178 298.096L277.014 305.598L276.919 305.369C276.145 303.493 276.147 301.388 276.925 299.514C277.703 297.641 279.194 296.153 281.068 295.378L281.069 295.378L283.347 291.491L290.577 291.451L292.163 290.796L295.178 298.096Z" fill="#2F2E41"/>
<path d="M274.543 167.111C274.543 167.111 269.591 151.496 271.644 145.104L283.059 144.412L284.365 167.452L277.841 194.093C278.095 194.853 278.144 195.667 277.982 196.453C277.82 197.238 277.453 197.966 276.919 198.564C276.384 199.162 275.701 199.607 274.939 199.856C274.176 200.104 273.362 200.146 272.578 199.978C271.794 199.81 271.068 199.437 270.475 198.898C269.882 198.358 269.442 197.672 269.2 196.907C268.957 196.143 268.922 195.328 269.096 194.546C269.271 193.763 269.649 193.041 270.193 192.452L274.543 167.111Z" fill="#A0616A"/>
<path d="M281.826 135.123L280.115 127.594C279.471 124.761 278.273 122.083 276.591 119.714C274.908 117.345 272.773 115.333 270.31 113.792C268.78 112.843 267.016 112.34 265.216 112.342C263.416 112.343 261.652 112.848 260.124 113.799C258.061 115.102 256.57 117.139 255.952 119.5C255.334 121.861 255.636 124.368 256.796 126.514C260.319 133.022 260.337 140.396 265.55 140.603L265.346 143.311L272.527 158.998L286.579 155.452L281.826 135.123Z" fill="#277FFE"/>
<path d="M272.422 169.152C272.422 169.152 276.078 181.311 273.195 191.691C270.312 202.072 267.989 227.109 267.989 227.109L289.508 280.251L279.497 282.832L247.51 230.575L244.492 285.383L234.842 285.779L227.557 230.892L233.335 175.691L272.422 169.152Z" fill="#2F2E41"/>
<path d="M274.039 179.763L274.097 179.681C277.219 175.311 272.524 164.809 271.816 163.287C272.657 163.014 273.377 162.458 273.854 161.714C274.331 160.969 274.535 160.083 274.432 159.205L274.127 156.61L273.808 154.065L276.088 151.785L276.094 151.729L277.406 140.25L279.313 132.627C280.032 129.745 279.971 126.723 279.136 123.873C278.301 121.022 276.723 118.445 274.563 116.406L270.154 115.706L264.796 110.544H256.156L253.193 113.374C247.662 114.344 248.827 114.027 244.077 119.728L238.103 136.818L238.642 139.257L238.64 142.564L239.488 152.319C238.995 152.868 238.636 153.523 238.441 154.234C238.246 154.945 238.22 155.692 238.365 156.415L238.545 157.315C237.133 157.92 235.785 168.674 235.464 170.176L234.983 172.42C234.571 172.963 231.856 176.583 231.856 177.573C231.856 177.722 231.966 177.865 232.201 178.025C234.051 179.278 245.23 180.565 249.756 178.754C254.578 176.826 273.746 179.718 273.939 179.748L274.039 179.763Z" fill="#277FFE"/>
<path d="M216.265 146.421C216.265 146.421 230.155 137.736 236.857 138.132L240.371 149.015L218.381 156.019L190.955 156.335C190.282 156.771 189.506 157.021 188.705 157.059C187.904 157.098 187.107 156.924 186.395 156.555C185.683 156.187 185.082 155.636 184.651 154.959C184.221 154.283 183.977 153.505 183.945 152.703C183.913 151.902 184.093 151.107 184.468 150.398C184.842 149.689 185.397 149.092 186.077 148.667C186.757 148.242 187.538 148.004 188.339 147.979C189.14 147.953 189.934 148.139 190.64 148.52L216.265 146.421Z" fill="#A0616A"/>
<path d="M249.06 145.508L255.925 141.976C258.508 140.646 260.804 138.819 262.679 136.599C264.554 134.38 265.971 131.811 266.85 129.042C267.388 127.324 267.435 125.49 266.986 123.747C266.536 122.004 265.608 120.422 264.307 119.178C262.531 117.505 260.186 116.568 257.746 116.558C255.306 116.547 252.953 117.464 251.163 119.122C245.738 124.155 238.6 126.009 239.698 131.11L237.025 131.586L223.62 142.448L230.555 155.174L249.06 145.508Z" fill="#277FFE"/>
<path d="M260.543 107.291C267.677 107.291 273.46 101.508 273.46 94.374C273.46 87.2402 267.677 81.4572 260.543 81.4572C253.409 81.4572 247.626 87.2402 247.626 94.374C247.626 101.508 253.409 107.291 260.543 107.291Z" fill="#A0616A"/>
<path d="M251.685 79.4605C252.611 79.433 252.293 77.6881 253.039 77.1314C253.043 77.1483 253.047 77.1651 253.051 77.182C253.148 77.5589 253.365 77.8945 253.667 78.1393C253.97 78.3841 254.344 78.5251 254.733 78.5417C255.122 78.5583 255.506 78.4496 255.829 78.2315C256.151 78.0134 256.395 77.6974 256.525 77.3302C256.648 76.9054 256.872 76.5165 257.178 76.1962C257.483 75.876 257.861 75.6337 258.279 75.4898C258.325 77.1072 259.549 78.5109 261.008 79.2095C262.468 79.908 264.132 80.0243 265.75 80.0482C267.368 79.9829 268.988 80.1056 270.578 80.4139C272.147 80.8098 273.673 81.7406 274.343 83.2133C275.013 84.686 274.535 86.7136 273.069 87.399C274.205 87.4051 275.168 88.342 275.561 89.4075C275.883 90.5003 275.967 91.6494 275.807 92.7775C275.488 96.9543 274.71 101.451 271.668 104.332C269.35 106.527 266.033 107.411 262.84 107.399C259.647 107.386 260.209 107.092 257.122 106.278C260.297 106.633 259.43 92.4508 254.185 91.8764C254.133 91.7509 254.088 91.6228 254.049 91.4926C253.856 90.8289 253.508 90.2207 253.033 89.7178C252.559 89.2149 251.972 88.8318 251.321 88.5998C250.664 88.3864 249.956 88.3793 249.294 88.5796C248.633 88.7799 248.048 89.178 247.619 89.7203C244.239 86.5502 246.336 79.6194 251.685 79.4605Z" fill="#2F2E41"/>
<path d="M332.761 306.022H315.213L315.137 305.885C314.913 305.478 314.696 305.047 314.494 304.604C312.687 300.735 311.923 296.309 311.248 292.404L310.741 289.461C310.679 289.104 310.726 288.737 310.874 288.407C311.022 288.077 311.265 287.799 311.572 287.608C311.88 287.417 312.237 287.322 312.598 287.336C312.96 287.349 313.309 287.47 313.601 287.683C316.268 289.623 318.936 291.562 321.605 293.499C322.616 294.234 323.77 295.085 324.875 296.005C324.982 295.487 325.093 294.967 325.205 294.455C325.282 294.101 325.462 293.779 325.724 293.528C325.985 293.278 326.315 293.111 326.672 293.049C327.028 292.988 327.395 293.034 327.726 293.182C328.056 293.33 328.334 293.573 328.526 293.881L330.579 297.179C332.076 299.588 333.398 301.962 333.129 304.522C333.13 304.553 333.128 304.584 333.122 304.615C333.068 305.036 332.968 305.449 332.824 305.848L332.761 306.022Z" fill="#F0F0F0"/>
<path d="M350.374 306.402L183.623 306.564C183.457 306.563 183.298 306.497 183.18 306.379C183.063 306.261 182.997 306.101 182.997 305.935C182.997 305.768 183.063 305.608 183.18 305.491C183.298 305.373 183.457 305.306 183.623 305.305L350.374 305.143C350.54 305.143 350.699 305.21 350.817 305.328C350.934 305.446 351 305.606 351 305.772C351 305.939 350.934 306.098 350.817 306.216C350.699 306.334 350.54 306.401 350.374 306.402Z" fill="#CACACA"/>
</g>
<defs>
<clipPath id="clip0_22_327">
<rect width="351" height="306.551" fill="white" transform="translate(0 0.0130615)"/>
</clipPath>
</defs>
</svg>
