<svg width="471" height="575" viewBox="0 0 471 575" fill="none" xmlns="http://www.w3.org/2000/svg">
<path fill-rule="evenodd" clip-rule="evenodd" d="M162.859 137.301C227.857 183.335 187.183 286.264 212.964 361.625C240.868 443.196 359.407 512.639 316.922 587.655C274.178 663.128 154.232 604.906 68.341 616.984C5.99809 625.751 -49.3789 662.004 -110.709 647.788C-194.958 628.259 -300.265 607.002 -328.045 525.102C-355.938 442.869 -281.02 364.943 -230.636 294.221C-188.653 235.291 -136.416 188.584 -69.2076 161.782C5.90274 131.829 96.8702 90.5659 162.859 137.301Z" fill="#D9E2FF"/>
<path d="M165.005 480.932L155.525 473.384L156.371 461.296C156.395 460.965 156.308 460.636 156.125 460.359C155.666 459.665 154.728 459.473 154.03 459.93L143.924 466.615L132.688 462.078C132.379 461.952 132.039 461.935 131.72 462.022C131.334 462.129 131.006 462.386 130.808 462.735C130.61 463.084 130.56 463.497 130.667 463.884L133.898 475.562L126.109 484.846C125.927 485.062 125.81 485.324 125.77 485.603C125.73 485.882 125.769 486.167 125.882 486.425C125.996 486.683 126.179 486.904 126.412 487.063C126.645 487.222 126.918 487.313 127.2 487.325L139.305 487.859L145.728 498.134C145.902 498.417 146.17 498.633 146.48 498.748C147.261 499.04 148.131 498.645 148.423 497.864L152.671 486.514L164.427 483.58C164.748 483.499 165.035 483.317 165.242 483.055C165.769 482.405 165.657 481.454 165.005 480.932Z" fill="white" fill-opacity="0.35"/>
<path d="M200.243 409.493L200.199 410.114L200.687 410.502L210.163 418.048C210.163 418.048 210.164 418.048 210.164 418.049C210.313 418.169 210.325 418.372 210.221 418.5L210.221 418.5L210.213 418.511C210.17 418.564 210.11 418.604 210.038 418.622C210.038 418.622 210.037 418.623 210.037 418.623L198.284 421.556L197.679 421.707L197.461 422.29L193.212 433.64L193.212 433.641C193.15 433.806 192.965 433.893 192.794 433.829L192.792 433.829C192.724 433.803 192.668 433.756 192.635 433.703L192.632 433.698L186.21 423.422L185.879 422.894L185.257 422.867L173.151 422.333L173.149 422.333C173.089 422.33 173.03 422.31 172.98 422.276C172.93 422.242 172.891 422.195 172.866 422.139C172.842 422.084 172.834 422.023 172.842 421.963C172.851 421.903 172.876 421.847 172.915 421.8L172.916 421.799L180.705 412.515L181.106 412.038L180.939 411.438L177.708 399.76L177.708 399.76C177.685 399.676 177.696 399.586 177.739 399.51C177.781 399.435 177.852 399.379 177.935 399.356C178.007 399.337 178.078 399.342 178.141 399.367L178.144 399.368L189.379 403.906L189.957 404.139L190.477 403.795L200.578 397.113C200.578 397.113 200.579 397.113 200.579 397.112C200.735 397.012 200.939 397.058 201.036 397.204L201.037 397.206C201.075 397.264 201.094 397.334 201.089 397.404L201.089 397.405L200.243 409.493Z" stroke="white" stroke-opacity="0.35" stroke-width="2.37"/>
<path d="M106.243 399.493L106.199 400.114L106.687 400.502L116.163 408.048C116.163 408.048 116.164 408.048 116.164 408.049C116.313 408.169 116.325 408.372 116.221 408.5L116.221 408.5L116.213 408.511C116.17 408.564 116.11 408.604 116.038 408.622C116.038 408.622 116.037 408.623 116.037 408.623L104.284 411.556L103.679 411.707L103.461 412.29L99.2124 423.64L99.212 423.641C99.1503 423.806 98.9647 423.893 98.7938 423.829L98.7922 423.829C98.724 423.803 98.6682 423.756 98.6354 423.703L98.6322 423.698L92.2096 413.422L91.8794 412.894L91.257 412.867L79.1512 412.333L79.1491 412.333C79.0886 412.33 79.0301 412.31 78.9801 412.276C78.9301 412.242 78.8907 412.195 78.8663 412.139C78.8419 412.084 78.8336 412.023 78.8421 411.963C78.8507 411.903 78.876 411.847 78.9149 411.8L78.9159 411.799L86.7051 402.515L87.1056 402.038L86.9394 401.438L83.7081 389.76L83.708 389.76C83.6848 389.676 83.6958 389.586 83.7387 389.51C83.7813 389.435 83.8517 389.379 83.9348 389.356C84.0066 389.337 84.0783 389.342 84.1411 389.367L84.1437 389.368L95.3794 393.906L95.9572 394.139L96.4769 393.795L106.578 387.113C106.578 387.113 106.579 387.113 106.579 387.112C106.735 387.012 106.939 387.058 107.036 387.204L107.037 387.206C107.075 387.264 107.094 387.334 107.089 387.404L107.089 387.405L106.243 399.493Z" stroke="white" stroke-opacity="0.35" stroke-width="2.37"/>
<path d="M27.2426 281.493L27.1991 282.114L27.6866 282.502L37.1629 290.048C37.1632 290.048 37.1635 290.048 37.1638 290.049C37.3133 290.169 37.3249 290.372 37.221 290.5L37.221 290.5L37.2127 290.511C37.1705 290.564 37.1103 290.604 37.038 290.622C37.0375 290.622 37.0371 290.623 37.0367 290.623L25.2835 293.556L24.6791 293.707L24.4607 294.29L20.2124 305.64L20.212 305.641C20.1503 305.806 19.9647 305.893 19.7938 305.829L19.7922 305.829C19.724 305.803 19.6682 305.756 19.6354 305.703L19.6322 305.698L13.2096 295.422L12.8794 294.894L12.257 294.867L0.151159 294.333L0.149094 294.333C0.0886217 294.33 0.0300671 294.31 -0.0199243 294.276C-0.0699044 294.242 -0.109322 294.195 -0.1337 294.139C-0.158081 294.084 -0.166447 294.023 -0.157856 293.963C-0.14926 293.903 -0.124046 293.847 -0.0850755 293.8L-0.0840504 293.799L7.70514 284.515L8.10556 284.038L7.93942 283.438L4.70806 271.76L4.70803 271.76C4.68479 271.676 4.69583 271.586 4.73873 271.51C4.78128 271.435 4.85172 271.379 4.93477 271.356C5.00658 271.337 5.07826 271.342 5.14106 271.367L5.14372 271.368L16.3794 275.906L16.9572 276.139L17.4769 275.795L27.5777 269.113C27.5783 269.113 27.5789 269.113 27.5794 269.112C27.7351 269.012 27.9391 269.058 28.0359 269.204L28.0367 269.206C28.0754 269.264 28.0938 269.334 28.0888 269.404L28.0887 269.405L27.2426 281.493Z" stroke="white" stroke-opacity="0.35" stroke-width="2.37"/>
<path d="M109.243 248.493L109.199 249.114L109.687 249.502L119.163 257.048C119.163 257.048 119.164 257.048 119.164 257.049C119.313 257.169 119.325 257.372 119.221 257.5L119.221 257.5L119.213 257.511C119.17 257.564 119.11 257.604 119.038 257.622C119.038 257.622 119.037 257.623 119.037 257.623L107.284 260.556L106.679 260.707L106.461 261.29L102.212 272.64L102.212 272.641C102.15 272.806 101.965 272.893 101.794 272.829L101.792 272.829C101.724 272.803 101.668 272.756 101.635 272.703L101.632 272.698L95.2096 262.422L94.8794 261.894L94.257 261.867L82.1512 261.333L82.1491 261.333C82.0886 261.33 82.0301 261.31 81.9801 261.276C81.9301 261.242 81.8907 261.195 81.8663 261.139C81.8419 261.084 81.8336 261.023 81.8421 260.963C81.8507 260.903 81.876 260.847 81.9149 260.8L81.9159 260.799L89.7051 251.515L90.1056 251.038L89.9394 250.438L86.7081 238.76L86.708 238.76C86.6848 238.676 86.6958 238.586 86.7387 238.51C86.7813 238.435 86.8517 238.379 86.9348 238.356C87.0066 238.337 87.0783 238.342 87.1411 238.367L87.1437 238.368L98.3794 242.906L98.9572 243.139L99.4769 242.795L109.578 236.113C109.578 236.113 109.579 236.113 109.579 236.112C109.735 236.012 109.939 236.058 110.036 236.204L110.037 236.206C110.075 236.264 110.094 236.334 110.089 236.404L110.089 236.405L109.243 248.493Z" stroke="white" stroke-opacity="0.35" stroke-width="2.37"/>
<path d="M119.243 169.493L119.199 170.114L119.687 170.502L129.163 178.048C129.163 178.048 129.164 178.048 129.164 178.049C129.313 178.169 129.325 178.372 129.221 178.5L129.221 178.5L129.213 178.511C129.17 178.564 129.11 178.604 129.038 178.622C129.038 178.622 129.037 178.623 129.037 178.623L117.284 181.556L116.679 181.707L116.461 182.29L112.212 193.64L112.212 193.641C112.15 193.806 111.965 193.893 111.794 193.829L111.792 193.829C111.724 193.803 111.668 193.756 111.635 193.703L111.632 193.698L105.21 183.422L104.879 182.894L104.257 182.867L92.1512 182.333L92.1491 182.333C92.0886 182.33 92.0301 182.31 91.9801 182.276C91.9301 182.242 91.8907 182.195 91.8663 182.139C91.8419 182.084 91.8336 182.023 91.8421 181.963C91.8507 181.903 91.876 181.847 91.9149 181.8L91.9159 181.799L99.7051 172.515L100.106 172.038L99.9394 171.438L96.7081 159.76L96.708 159.76C96.6848 159.676 96.6958 159.586 96.7387 159.51C96.7813 159.435 96.8517 159.379 96.9348 159.356C97.0066 159.337 97.0783 159.342 97.1411 159.367L97.1437 159.368L108.379 163.906L108.957 164.139L109.477 163.795L119.578 157.113C119.578 157.113 119.579 157.113 119.579 157.112C119.735 157.012 119.939 157.058 120.036 157.204L120.037 157.206C120.075 157.264 120.094 157.334 120.089 157.404L120.089 157.405L119.243 169.493Z" stroke="white" stroke-opacity="0.35" stroke-width="2.37"/>
<path d="M202.904 235.123L193.425 227.575L194.271 215.488C194.294 215.157 194.208 214.827 194.024 214.551C193.566 213.857 192.628 213.665 191.929 214.121L181.823 220.807L170.587 216.27C170.278 216.144 169.938 216.126 169.62 216.213C169.233 216.321 168.905 216.577 168.707 216.926C168.51 217.276 168.459 217.689 168.566 218.076L171.797 229.754L164.008 239.037C163.827 239.253 163.709 239.516 163.669 239.795C163.629 240.074 163.668 240.358 163.782 240.617C163.895 240.875 164.079 241.096 164.312 241.255C164.544 241.414 164.817 241.505 165.099 241.516L177.205 242.05L183.627 252.326C183.802 252.608 184.069 252.824 184.379 252.94C185.16 253.231 186.03 252.837 186.322 252.055L190.57 240.706L202.327 237.772C202.647 237.691 202.934 237.508 203.142 237.246C203.668 236.597 203.556 235.646 202.904 235.123Z" fill="white" fill-opacity="0.35"/>
<path d="M148.904 335.123L139.425 327.575L140.271 315.488C140.294 315.157 140.208 314.827 140.024 314.551C139.566 313.857 138.628 313.665 137.929 314.121L127.823 320.807L116.587 316.27C116.278 316.144 115.938 316.126 115.62 316.213C115.233 316.321 114.905 316.577 114.707 316.926C114.51 317.276 114.459 317.689 114.566 318.076L117.797 329.754L110.008 339.037C109.827 339.253 109.709 339.516 109.669 339.795C109.629 340.074 109.668 340.358 109.782 340.617C109.895 340.875 110.079 341.096 110.312 341.255C110.544 341.414 110.817 341.505 111.099 341.516L123.205 342.05L129.627 352.326C129.802 352.608 130.069 352.824 130.379 352.94C131.16 353.231 132.03 352.837 132.322 352.055L136.57 340.706L148.327 337.772C148.647 337.691 148.934 337.508 149.142 337.246C149.668 336.597 149.556 335.646 148.904 335.123Z" fill="white" fill-opacity="0.35"/>
<path d="M43.2426 360.493L43.1991 361.114L43.6866 361.502L53.1629 369.048C53.1632 369.048 53.1635 369.048 53.1638 369.049C53.3133 369.169 53.3249 369.372 53.221 369.5L53.221 369.5L53.2127 369.511C53.1705 369.564 53.1103 369.604 53.038 369.622C53.0375 369.622 53.0371 369.623 53.0367 369.623L41.2835 372.556L40.6791 372.707L40.4607 373.29L36.2124 384.64L36.212 384.641C36.1503 384.806 35.9647 384.893 35.7938 384.829L35.7922 384.829C35.724 384.803 35.6682 384.756 35.6354 384.703L35.6322 384.698L29.2096 374.422L28.8794 373.894L28.257 373.867L16.1512 373.333L16.1491 373.333C16.0886 373.33 16.0301 373.31 15.9801 373.276C15.9301 373.242 15.8907 373.195 15.8663 373.139C15.8419 373.084 15.8336 373.023 15.8421 372.963C15.8507 372.903 15.876 372.847 15.9149 372.8L15.9159 372.799L23.7051 363.515L24.1056 363.038L23.9394 362.438L20.7081 350.76L20.708 350.76C20.6848 350.676 20.6958 350.586 20.7387 350.51C20.7813 350.435 20.8517 350.379 20.9348 350.356C21.0066 350.337 21.0783 350.342 21.1411 350.367L21.1437 350.368L32.3794 354.906L32.9572 355.139L33.4769 354.795L43.5777 348.113C43.5783 348.113 43.5789 348.113 43.5794 348.112C43.7351 348.012 43.9391 348.058 44.0359 348.204L44.0367 348.206C44.0754 348.264 44.0938 348.334 44.0888 348.404L44.0887 348.405L43.2426 360.493Z" stroke="white" stroke-opacity="0.35" stroke-width="2.37"/>
<path d="M54.904 466.123L45.4247 458.575L46.2708 446.488C46.2943 446.157 46.2076 445.827 46.0244 445.551C45.5655 444.857 44.6276 444.665 43.9293 445.121L33.8231 451.807L22.5874 447.27C22.2781 447.144 21.9385 447.126 21.6196 447.213C21.233 447.321 20.9049 447.577 20.7074 447.926C20.5098 448.276 20.4589 448.689 20.566 449.076L23.7973 460.754L16.0081 470.037C15.8266 470.253 15.7092 470.516 15.6691 470.795C15.6291 471.074 15.6681 471.358 15.7817 471.617C15.8952 471.875 16.0788 472.096 16.3117 472.255C16.5445 472.414 16.8172 472.505 17.0989 472.516L29.2047 473.05L35.6273 483.326C35.8017 483.608 36.0692 483.824 36.3793 483.94C37.1605 484.231 38.0304 483.837 38.3222 483.055L42.5705 471.706L54.3266 468.772C54.6472 468.691 54.9342 468.508 55.1415 468.246C55.6682 467.597 55.556 466.646 54.904 466.123Z" fill="white" fill-opacity="0.35"/>
<path d="M111.243 511.493L111.199 512.114L111.687 512.502L121.163 520.048C121.163 520.048 121.164 520.048 121.164 520.049C121.313 520.169 121.325 520.372 121.221 520.5L121.221 520.5L121.213 520.511C121.17 520.564 121.11 520.604 121.038 520.622C121.038 520.622 121.037 520.623 121.037 520.623L109.284 523.556L108.679 523.707L108.461 524.29L104.212 535.64L104.212 535.641C104.15 535.806 103.965 535.893 103.794 535.829L103.792 535.829C103.724 535.803 103.668 535.756 103.635 535.703L103.632 535.698L97.2096 525.422L96.8794 524.894L96.257 524.867L84.1512 524.333L84.1491 524.333C84.0886 524.33 84.0301 524.31 83.9801 524.276C83.9301 524.242 83.8907 524.195 83.8663 524.139C83.8419 524.084 83.8336 524.023 83.8421 523.963C83.8507 523.903 83.876 523.847 83.9149 523.8L83.9159 523.799L91.7051 514.515L92.1056 514.038L91.9394 513.438L88.7081 501.76L88.708 501.76C88.6848 501.676 88.6958 501.586 88.7387 501.51C88.7813 501.435 88.8517 501.379 88.9348 501.356C89.0066 501.337 89.0783 501.342 89.1411 501.367L89.1437 501.368L100.379 505.906L100.957 506.139L101.477 505.795L111.578 499.113C111.578 499.113 111.579 499.113 111.579 499.112C111.735 499.012 111.939 499.058 112.036 499.204L112.037 499.206C112.075 499.264 112.094 499.334 112.089 499.404L112.089 499.405L111.243 511.493Z" stroke="white" stroke-opacity="0.35" stroke-width="2.37"/>
<path d="M84.904 578.123L75.4247 570.575L76.2708 558.488C76.2943 558.157 76.2076 557.827 76.0244 557.551C75.5655 556.857 74.6276 556.665 73.9293 557.121L63.8231 563.807L52.5874 559.27C52.2781 559.144 51.9385 559.126 51.6196 559.213C51.233 559.321 50.9049 559.577 50.7074 559.926C50.5098 560.276 50.4589 560.689 50.566 561.076L53.7973 572.754L46.0081 582.037C45.8266 582.253 45.7092 582.516 45.6691 582.795C45.6291 583.074 45.6681 583.358 45.7817 583.617C45.8952 583.875 46.0788 584.096 46.3117 584.255C46.5445 584.414 46.8172 584.505 47.0989 584.516L59.2047 585.05L65.6273 595.326C65.8017 595.608 66.0692 595.824 66.3793 595.94C67.1605 596.231 68.0304 595.837 68.3222 595.055L72.5705 583.706L84.3266 580.772C84.6472 580.691 84.9342 580.508 85.1415 580.246C85.6682 579.597 85.556 578.646 84.904 578.123Z" fill="white" fill-opacity="0.35"/>
<path d="M269.904 564.123L260.425 556.575L261.271 544.488C261.294 544.157 261.208 543.827 261.024 543.551C260.566 542.857 259.628 542.665 258.929 543.121L248.823 549.807L237.587 545.27C237.278 545.144 236.938 545.126 236.62 545.213C236.233 545.321 235.905 545.577 235.707 545.926C235.51 546.276 235.459 546.689 235.566 547.076L238.797 558.754L231.008 568.037C230.827 568.253 230.709 568.516 230.669 568.795C230.629 569.074 230.668 569.358 230.782 569.617C230.895 569.875 231.079 570.096 231.312 570.255C231.544 570.414 231.817 570.505 232.099 570.516L244.205 571.05L250.627 581.326C250.802 581.608 251.069 581.824 251.379 581.94C252.16 582.231 253.03 581.837 253.322 581.055L257.57 569.706L269.327 566.772C269.647 566.691 269.934 566.508 270.142 566.246C270.668 565.597 270.556 564.646 269.904 564.123Z" fill="white" fill-opacity="0.35"/>
<path d="M250.904 470.123L241.425 462.575L242.271 450.488C242.294 450.157 242.208 449.827 242.024 449.551C241.566 448.857 240.628 448.665 239.929 449.121L229.823 455.807L218.587 451.27C218.278 451.144 217.938 451.126 217.62 451.213C217.233 451.321 216.905 451.577 216.707 451.926C216.51 452.276 216.459 452.689 216.566 453.076L219.797 464.754L212.008 474.037C211.827 474.253 211.709 474.516 211.669 474.795C211.629 475.074 211.668 475.358 211.782 475.617C211.895 475.875 212.079 476.096 212.312 476.255C212.544 476.414 212.817 476.505 213.099 476.516L225.205 477.05L231.627 487.326C231.802 487.608 232.069 487.824 232.379 487.94C233.16 488.231 234.03 487.837 234.322 487.055L238.57 475.706L250.327 472.772C250.647 472.691 250.934 472.508 251.142 472.246C251.668 471.597 251.556 470.646 250.904 470.123Z" fill="white" fill-opacity="0.35"/>
<path d="M311.243 530.493L311.199 531.114L311.687 531.502L321.163 539.048C321.163 539.048 321.164 539.048 321.164 539.049C321.313 539.169 321.325 539.372 321.221 539.5L321.221 539.5L321.213 539.511C321.17 539.564 321.11 539.604 321.038 539.622C321.038 539.622 321.037 539.623 321.037 539.623L309.284 542.556L308.679 542.707L308.461 543.29L304.212 554.64L304.212 554.641C304.15 554.806 303.965 554.893 303.794 554.829L303.792 554.829C303.724 554.803 303.668 554.756 303.635 554.703L303.632 554.698L297.21 544.422L296.879 543.894L296.257 543.867L284.151 543.333L284.149 543.333C284.089 543.33 284.03 543.31 283.98 543.276C283.93 543.242 283.891 543.195 283.866 543.139C283.842 543.084 283.834 543.023 283.842 542.963C283.851 542.903 283.876 542.847 283.915 542.8L283.916 542.799L291.705 533.515L292.106 533.038L291.939 532.438L288.708 520.76L288.708 520.76C288.685 520.676 288.696 520.586 288.739 520.51C288.781 520.435 288.852 520.379 288.935 520.356C289.007 520.337 289.078 520.342 289.141 520.367L289.144 520.368L300.379 524.906L300.957 525.139L301.477 524.795L311.578 518.113C311.578 518.113 311.579 518.113 311.579 518.112C311.735 518.012 311.939 518.058 312.036 518.204L312.037 518.206C312.075 518.264 312.094 518.334 312.089 518.404L312.089 518.405L311.243 530.493Z" stroke="white" stroke-opacity="0.35" stroke-width="2.37"/>
<path d="M154.243 564.493L154.199 565.114L154.687 565.502L164.163 573.048C164.163 573.048 164.164 573.048 164.164 573.049C164.313 573.169 164.325 573.372 164.221 573.5L164.221 573.5L164.213 573.511C164.17 573.564 164.11 573.604 164.038 573.622C164.038 573.622 164.037 573.623 164.037 573.623L152.284 576.556L151.679 576.707L151.461 577.29L147.212 588.64L147.212 588.641C147.15 588.806 146.965 588.893 146.794 588.829L146.792 588.829C146.724 588.803 146.668 588.756 146.635 588.703L146.632 588.698L140.21 578.422L139.879 577.894L139.257 577.867L127.151 577.333L127.149 577.333C127.089 577.33 127.03 577.31 126.98 577.276C126.93 577.242 126.891 577.195 126.866 577.139C126.842 577.084 126.834 577.023 126.842 576.963C126.851 576.903 126.876 576.847 126.915 576.8L126.916 576.799L134.705 567.515L135.106 567.038L134.939 566.438L131.708 554.76L131.708 554.76C131.685 554.676 131.696 554.586 131.739 554.51C131.781 554.435 131.852 554.379 131.935 554.356C132.007 554.337 132.078 554.342 132.141 554.367L132.144 554.368L143.379 558.906L143.957 559.139L144.477 558.795L154.578 552.113C154.578 552.113 154.579 552.113 154.579 552.112C154.735 552.012 154.939 552.058 155.036 552.204L155.037 552.206C155.075 552.264 155.094 552.334 155.089 552.404L155.089 552.405L154.243 564.493Z" stroke="white" stroke-opacity="0.35" stroke-width="2.37"/>
<path d="M16.2426 544.493L16.1991 545.114L16.6866 545.502L26.1629 553.048C26.1632 553.048 26.1635 553.048 26.1638 553.049C26.3133 553.169 26.3249 553.372 26.221 553.5L26.221 553.5L26.2127 553.511C26.1705 553.564 26.1103 553.604 26.038 553.622C26.0375 553.622 26.0371 553.623 26.0367 553.623L14.2835 556.556L13.6791 556.707L13.4607 557.29L9.21237 568.64L9.21204 568.641C9.15031 568.806 8.9647 568.893 8.79383 568.829L8.79222 568.829C8.72399 568.803 8.66821 568.756 8.63537 568.703L8.63219 568.698L2.20959 558.422L1.87937 557.894L1.25695 557.867L-10.8488 557.333L-10.8509 557.333C-10.9114 557.33 -10.9699 557.31 -11.0199 557.276C-11.0699 557.242 -11.1093 557.195 -11.1337 557.139C-11.1581 557.084 -11.1664 557.023 -11.1579 556.963C-11.1493 556.903 -11.124 556.847 -11.0851 556.8L-11.0841 556.799L-3.29486 547.515L-2.89444 547.038L-3.06058 546.438L-6.29194 534.76L-6.29197 534.76C-6.31521 534.676 -6.30417 534.586 -6.26127 534.51C-6.21872 534.435 -6.14828 534.379 -6.06523 534.356C-5.99342 534.337 -5.92174 534.342 -5.85894 534.367L-5.85628 534.368L5.37936 538.906L5.95716 539.139L6.47687 538.795L16.5777 532.113C16.5783 532.113 16.5789 532.113 16.5794 532.112C16.7351 532.012 16.9391 532.058 17.0359 532.204L17.0367 532.206C17.0754 532.264 17.0938 532.334 17.0888 532.404L17.0887 532.405L16.2426 544.493Z" stroke="white" stroke-opacity="0.35" stroke-width="2.37"/>
<path d="M56.904 177.123L47.4247 169.575L48.2708 157.488C48.2943 157.157 48.2076 156.827 48.0244 156.551C47.5655 155.857 46.6276 155.665 45.9293 156.121L35.8231 162.807L24.5874 158.27C24.2781 158.144 23.9385 158.126 23.6196 158.213C23.233 158.321 22.9049 158.577 22.7074 158.926C22.5098 159.276 22.4589 159.689 22.566 160.076L25.7973 171.754L18.0081 181.037C17.8266 181.253 17.7092 181.516 17.6691 181.795C17.6291 182.074 17.6681 182.358 17.7817 182.617C17.8952 182.875 18.0788 183.096 18.3117 183.255C18.5445 183.414 18.8172 183.505 19.0989 183.516L31.2047 184.05L37.6273 194.326C37.8017 194.608 38.0692 194.824 38.3793 194.94C39.1605 195.231 40.0304 194.837 40.3222 194.055L44.5705 182.706L56.3266 179.772C56.6472 179.691 56.9342 179.508 57.1415 179.246C57.6682 178.597 57.556 177.646 56.904 177.123Z" fill="white" fill-opacity="0.35"/>
</svg>
