<svg width="561" height="250" viewBox="0 0 561 250" fill="none" xmlns="http://www.w3.org/2000/svg">
<path fill-rule="evenodd" clip-rule="evenodd" d="M336.363 -268.782C395.331 -287.346 460.283 -287.175 517.197 -263.036C583.544 -234.896 655.326 -193.54 676.316 -124.596C697.25 -55.8357 648.263 11.828 621.144 78.3924C596.259 139.475 587.406 223.641 525.344 245.972C461.079 269.097 404.661 181.165 336.363 180.864C268.637 180.565 214.216 261.036 148.587 244.312C78.8744 226.548 0.0247396 167.092 5.34492e-06 95.1521C-0.0265412 17.9406 98.8398 -16.0446 148.477 -75.1864C175.012 -106.803 194.106 -140.752 222.852 -170.372C258.603 -207.209 287.399 -253.368 336.363 -268.782Z" fill="#D9E2FF"/>
<path d="M76.904 163.123L67.4247 155.575L68.2708 143.488C68.2943 143.157 68.2076 142.827 68.0244 142.551C67.5655 141.857 66.6276 141.665 65.9293 142.121L55.8231 148.807L44.5874 144.27C44.2781 144.144 43.9385 144.126 43.6196 144.213C43.233 144.321 42.9049 144.577 42.7074 144.926C42.5098 145.276 42.4589 145.689 42.566 146.076L45.7973 157.754L38.0081 167.037C37.8266 167.253 37.7092 167.516 37.6691 167.795C37.6291 168.074 37.6681 168.358 37.7817 168.617C37.8952 168.875 38.0788 169.096 38.3117 169.255C38.5445 169.414 38.8172 169.505 39.0989 169.516L51.2047 170.05L57.6273 180.326C57.8017 180.608 58.0692 180.824 58.3793 180.94C59.1605 181.231 60.0304 180.837 60.3222 180.055L64.5705 168.706L76.3266 165.772C76.6472 165.691 76.9342 165.508 77.1415 165.246C77.6682 164.597 77.556 163.646 76.904 163.123Z" fill="white" fill-opacity="0.35"/>
<path d="M173.904 216.123L164.425 208.575L165.271 196.488C165.294 196.157 165.208 195.827 165.024 195.551C164.566 194.857 163.628 194.665 162.929 195.121L152.823 201.807L141.587 197.27C141.278 197.144 140.938 197.126 140.62 197.213C140.233 197.321 139.905 197.577 139.707 197.926C139.51 198.276 139.459 198.689 139.566 199.076L142.797 210.754L135.008 220.037C134.827 220.253 134.709 220.516 134.669 220.795C134.629 221.074 134.668 221.358 134.782 221.617C134.895 221.875 135.079 222.096 135.312 222.255C135.544 222.414 135.817 222.505 136.099 222.516L148.205 223.05L154.627 233.326C154.802 233.608 155.069 233.824 155.379 233.94C156.16 234.231 157.03 233.837 157.322 233.055L161.57 221.706L173.327 218.772C173.647 218.691 173.934 218.508 174.142 218.246C174.668 217.597 174.556 216.646 173.904 216.123Z" fill="white" fill-opacity="0.35"/>
<path d="M349.243 141.493L349.199 142.114L349.687 142.502L359.163 150.048C359.163 150.048 359.164 150.048 359.164 150.049C359.313 150.169 359.325 150.372 359.221 150.5L359.221 150.5L359.213 150.511C359.17 150.564 359.11 150.604 359.038 150.622C359.038 150.622 359.037 150.623 359.037 150.623L347.284 153.556L346.679 153.707L346.461 154.29L342.212 165.64L342.212 165.641C342.15 165.806 341.965 165.893 341.794 165.829L341.792 165.829C341.724 165.803 341.668 165.756 341.635 165.703L341.632 165.698L335.21 155.422L334.879 154.894L334.257 154.867L322.151 154.333L322.149 154.333C322.089 154.33 322.03 154.31 321.98 154.276C321.93 154.242 321.891 154.195 321.866 154.139C321.842 154.084 321.834 154.023 321.842 153.963C321.851 153.903 321.876 153.847 321.915 153.8L321.916 153.799L329.705 144.515L330.106 144.038L329.939 143.438L326.708 131.76L326.708 131.76C326.685 131.676 326.696 131.586 326.739 131.51C326.781 131.435 326.852 131.379 326.935 131.356C327.007 131.337 327.078 131.342 327.141 131.367L327.144 131.368L338.379 135.906L338.957 136.139L339.477 135.795L349.578 129.113C349.578 129.113 349.579 129.113 349.579 129.112C349.735 129.012 349.939 129.058 350.036 129.204L350.037 129.206C350.075 129.264 350.094 129.334 350.089 129.404L350.089 129.405L349.243 141.493Z" stroke="white" stroke-opacity="0.35" stroke-width="2.37"/>
<path d="M432.904 174.123L423.425 166.575L424.271 154.488C424.294 154.157 424.208 153.827 424.024 153.551C423.566 152.857 422.628 152.665 421.929 153.121L411.823 159.807L400.587 155.27C400.278 155.144 399.938 155.126 399.62 155.213C399.233 155.321 398.905 155.577 398.707 155.926C398.51 156.276 398.459 156.689 398.566 157.076L401.797 168.754L394.008 178.037C393.827 178.253 393.709 178.516 393.669 178.795C393.629 179.074 393.668 179.358 393.782 179.617C393.895 179.875 394.079 180.096 394.312 180.255C394.544 180.414 394.817 180.505 395.099 180.516L407.205 181.05L413.627 191.326C413.802 191.608 414.069 191.824 414.379 191.94C415.16 192.231 416.03 191.837 416.322 191.055L420.57 179.706L432.327 176.772C432.647 176.691 432.934 176.508 433.142 176.246C433.668 175.597 433.556 174.646 432.904 174.123Z" fill="white" fill-opacity="0.35"/>
<path d="M561.243 199.493L561.199 200.114L561.687 200.502L571.163 208.048C571.163 208.048 571.164 208.048 571.164 208.049C571.313 208.169 571.325 208.372 571.221 208.5L571.221 208.5L571.213 208.511C571.17 208.564 571.11 208.604 571.038 208.622C571.038 208.622 571.037 208.623 571.037 208.623L559.284 211.556L558.679 211.707L558.461 212.29L554.212 223.64L554.212 223.641C554.15 223.806 553.965 223.893 553.794 223.829L553.792 223.829C553.724 223.803 553.668 223.756 553.635 223.703L553.632 223.698L547.21 213.422L546.879 212.894L546.257 212.867L534.151 212.333L534.149 212.333C534.089 212.33 534.03 212.31 533.98 212.276C533.93 212.242 533.891 212.195 533.866 212.139C533.842 212.084 533.834 212.023 533.842 211.963C533.851 211.903 533.876 211.847 533.915 211.8L533.916 211.799L541.705 202.515L542.106 202.038L541.939 201.438L538.708 189.76L538.708 189.76C538.685 189.676 538.696 189.586 538.739 189.51C538.781 189.435 538.852 189.379 538.935 189.356C539.007 189.337 539.078 189.342 539.141 189.367L539.144 189.368L550.379 193.906L550.957 194.139L551.477 193.795L561.578 187.113C561.578 187.113 561.579 187.113 561.579 187.112C561.735 187.012 561.939 187.058 562.036 187.204L562.037 187.206C562.075 187.264 562.094 187.334 562.089 187.404L562.089 187.405L561.243 199.493Z" stroke="white" stroke-opacity="0.35" stroke-width="2.37"/>
<path d="M486.243 202.493L486.199 203.114L486.687 203.502L496.163 211.048C496.163 211.048 496.164 211.048 496.164 211.049C496.313 211.169 496.325 211.372 496.221 211.5L496.221 211.5L496.213 211.511C496.17 211.564 496.11 211.604 496.038 211.622C496.038 211.622 496.037 211.623 496.037 211.623L484.284 214.556L483.679 214.707L483.461 215.29L479.212 226.64L479.212 226.641C479.15 226.806 478.965 226.893 478.794 226.829L478.792 226.829C478.724 226.803 478.668 226.756 478.635 226.703L478.632 226.698L472.21 216.422L471.879 215.894L471.257 215.867L459.151 215.333L459.149 215.333C459.089 215.33 459.03 215.31 458.98 215.276C458.93 215.242 458.891 215.195 458.866 215.139C458.842 215.084 458.834 215.023 458.842 214.963C458.851 214.903 458.876 214.847 458.915 214.8L458.916 214.799L466.705 205.515L467.106 205.038L466.939 204.438L463.708 192.76L463.708 192.76C463.685 192.676 463.696 192.586 463.739 192.51C463.781 192.435 463.852 192.379 463.935 192.356C464.007 192.337 464.078 192.342 464.141 192.367L464.144 192.368L475.379 196.906L475.957 197.139L476.477 196.795L486.578 190.113C486.578 190.113 486.579 190.113 486.579 190.112C486.735 190.012 486.939 190.058 487.036 190.204L487.037 190.206C487.075 190.264 487.094 190.334 487.089 190.404L487.089 190.405L486.243 202.493Z" stroke="white" stroke-opacity="0.35" stroke-width="2.37"/>
<path d="M414.243 96.4925L414.199 97.1141L414.687 97.5023L424.163 105.048C424.163 105.048 424.164 105.048 424.164 105.049C424.313 105.169 424.325 105.372 424.221 105.5L424.221 105.5L424.213 105.511C424.17 105.564 424.11 105.604 424.038 105.622C424.038 105.622 424.037 105.623 424.037 105.623L412.284 108.556L411.679 108.707L411.461 109.29L407.212 120.64L407.212 120.641C407.15 120.806 406.965 120.893 406.794 120.829L406.792 120.829C406.724 120.803 406.668 120.756 406.635 120.703L406.632 120.698L400.21 110.422L399.879 109.894L399.257 109.867L387.151 109.333L387.149 109.333C387.089 109.33 387.03 109.31 386.98 109.276C386.93 109.242 386.891 109.195 386.866 109.139C386.842 109.084 386.834 109.023 386.842 108.963C386.851 108.903 386.876 108.847 386.915 108.8L386.916 108.799L394.705 99.5153L395.106 99.038L394.939 98.4376L391.708 86.7596L391.708 86.7595C391.685 86.6756 391.696 86.5858 391.739 86.51C391.781 86.4348 391.852 86.3794 391.935 86.3558C392.007 86.3366 392.078 86.3417 392.141 86.3673L392.144 86.3684L403.379 90.9056L403.957 91.139L404.477 90.7952L414.578 84.1133C414.578 84.1129 414.579 84.1126 414.579 84.1122C414.735 84.0117 414.939 84.0581 415.036 84.2044L415.037 84.2057C415.075 84.264 415.094 84.3338 415.089 84.4036L415.089 84.4048L414.243 96.4925Z" stroke="white" stroke-opacity="0.35" stroke-width="2.37"/>
<path d="M195.243 142.493L195.199 143.114L195.687 143.502L205.163 151.048C205.163 151.048 205.164 151.048 205.164 151.049C205.313 151.169 205.325 151.372 205.221 151.5L205.221 151.5L205.213 151.511C205.17 151.564 205.11 151.604 205.038 151.622C205.038 151.622 205.037 151.623 205.037 151.623L193.284 154.556L192.679 154.707L192.461 155.29L188.212 166.64L188.212 166.641C188.15 166.806 187.965 166.893 187.794 166.829L187.792 166.829C187.724 166.803 187.668 166.756 187.635 166.703L187.632 166.698L181.21 156.422L180.879 155.894L180.257 155.867L168.151 155.333L168.149 155.333C168.089 155.33 168.03 155.31 167.98 155.276C167.93 155.242 167.891 155.195 167.866 155.139C167.842 155.084 167.834 155.023 167.842 154.963C167.851 154.903 167.876 154.847 167.915 154.8L167.916 154.799L175.705 145.515L176.106 145.038L175.939 144.438L172.708 132.76L172.708 132.76C172.685 132.676 172.696 132.586 172.739 132.51C172.781 132.435 172.852 132.379 172.935 132.356C173.007 132.337 173.078 132.342 173.141 132.367L173.144 132.368L184.379 136.906L184.957 137.139L185.477 136.795L195.578 130.113C195.578 130.113 195.579 130.113 195.579 130.112C195.735 130.012 195.939 130.058 196.036 130.204L196.037 130.206C196.075 130.264 196.094 130.334 196.089 130.404L196.089 130.405L195.243 142.493Z" stroke="white" stroke-opacity="0.35" stroke-width="2.37"/>
<path d="M42.2426 78.4925L42.1991 79.1141L42.6866 79.5023L52.1629 87.0478C52.1632 87.048 52.1635 87.0483 52.1638 87.0485C52.3133 87.169 52.3249 87.3721 52.221 87.5003L52.221 87.5002L52.2127 87.5106C52.1705 87.5639 52.1103 87.6038 52.038 87.6224C52.0375 87.6225 52.0371 87.6226 52.0367 87.6227L40.2835 90.5562L39.6791 90.707L39.4607 91.2905L35.2124 102.64L35.212 102.641C35.1503 102.806 34.9647 102.893 34.7938 102.829L34.7922 102.829C34.724 102.803 34.6682 102.756 34.6354 102.703L34.6322 102.698L28.2096 92.4224L27.8794 91.894L27.257 91.8666L15.1512 91.3326L15.1491 91.3325C15.0886 91.3299 15.0301 91.3105 14.9801 91.2763C14.9301 91.2422 14.8907 91.1947 14.8663 91.1393C14.8419 91.0839 14.8336 91.0228 14.8421 90.9629C14.8507 90.9029 14.876 90.8466 14.9149 90.8003L14.9159 90.7991L22.7051 81.5153L23.1056 81.038L22.9394 80.4376L19.7081 68.7596L19.708 68.7595C19.6848 68.6756 19.6958 68.5858 19.7387 68.51C19.7813 68.4348 19.8517 68.3794 19.9348 68.3558C20.0066 68.3366 20.0783 68.3417 20.1411 68.3673L20.1437 68.3684L31.3794 72.9056L31.9572 73.139L32.4769 72.7952L42.5777 66.1133C42.5783 66.1129 42.5789 66.1126 42.5794 66.1122C42.7351 66.0117 42.9391 66.0581 43.0359 66.2044L43.0367 66.2057C43.0754 66.264 43.0938 66.3338 43.0888 66.4036L43.0887 66.4048L42.2426 78.4925Z" stroke="white" stroke-opacity="0.35" stroke-width="2.37"/>
<path d="M163.243 36.4925L163.199 37.1141L163.687 37.5023L173.163 45.0478C173.163 45.048 173.164 45.0483 173.164 45.0485C173.313 45.169 173.325 45.3721 173.221 45.5003L173.221 45.5002L173.213 45.5106C173.17 45.5639 173.11 45.6038 173.038 45.6224C173.038 45.6225 173.037 45.6226 173.037 45.6227L161.284 48.5562L160.679 48.707L160.461 49.2905L156.212 60.64L156.212 60.6409C156.15 60.8062 155.965 60.8933 155.794 60.8295L155.792 60.8289C155.724 60.8035 155.668 60.7561 155.635 60.7029L155.632 60.6978L149.21 50.4224L148.879 49.894L148.257 49.8666L136.151 49.3326L136.149 49.3325C136.089 49.3299 136.03 49.3105 135.98 49.2763C135.93 49.2422 135.891 49.1947 135.866 49.1393C135.842 49.0839 135.834 49.0228 135.842 48.9629C135.851 48.9029 135.876 48.8466 135.915 48.8003L135.916 48.7991L143.705 39.5153L144.106 39.038L143.939 38.4376L140.708 26.7596L140.708 26.7595C140.685 26.6756 140.696 26.5858 140.739 26.51C140.781 26.4348 140.852 26.3794 140.935 26.3558C141.007 26.3366 141.078 26.3417 141.141 26.3673L141.144 26.3684L152.379 30.9056L152.957 31.139L153.477 30.7952L163.578 24.1133C163.578 24.1129 163.579 24.1126 163.579 24.1122C163.735 24.0117 163.939 24.0581 164.036 24.2044L164.037 24.2057C164.075 24.264 164.094 24.3338 164.089 24.4036L164.089 24.4048L163.243 36.4925Z" stroke="white" stroke-opacity="0.35" stroke-width="2.37"/>
<path d="M95.904 8.1231L86.4247 0.575273L87.2708 -11.5125C87.2943 -11.8433 87.2076 -12.1727 87.0244 -12.4491C86.5655 -13.1433 85.6276 -13.3351 84.9293 -12.8785L74.8231 -6.19315L63.5874 -10.7304C63.2781 -10.8562 62.9385 -10.8739 62.6196 -10.7866C62.233 -10.6792 61.9049 -10.4227 61.7074 -10.0735C61.5098 -9.72434 61.4589 -9.311 61.566 -8.92435L64.7973 2.75363L57.0081 12.0374C56.8266 12.2532 56.7092 12.5155 56.6691 12.7946C56.6291 13.0737 56.6681 13.3585 56.7817 13.6166C56.8952 13.8747 57.0788 14.0958 57.3117 14.2548C57.5445 14.4139 57.8172 14.5045 58.0989 14.5164L70.2047 15.0504L76.6273 25.3259C76.8017 25.6081 77.0692 25.8243 77.3793 25.9396C78.1605 26.2313 79.0304 25.8367 79.3222 25.0555L83.5705 13.7059L95.3266 10.7717C95.6472 10.6908 95.9342 10.5082 96.1415 10.2465C96.6682 9.59685 96.556 8.64565 95.904 8.1231Z" fill="white" fill-opacity="0.35"/>
<path d="M109.243 111.493L109.199 112.114L109.687 112.502L119.163 120.048C119.163 120.048 119.164 120.048 119.164 120.049C119.313 120.169 119.325 120.372 119.221 120.5L119.221 120.5L119.213 120.511C119.17 120.564 119.11 120.604 119.038 120.622C119.038 120.622 119.037 120.623 119.037 120.623L107.284 123.556L106.679 123.707L106.461 124.29L102.212 135.64L102.212 135.641C102.15 135.806 101.965 135.893 101.794 135.829L101.792 135.829C101.724 135.803 101.668 135.756 101.635 135.703L101.632 135.698L95.2096 125.422L94.8794 124.894L94.257 124.867L82.1512 124.333L82.1491 124.333C82.0886 124.33 82.0301 124.31 81.9801 124.276C81.9301 124.242 81.8907 124.195 81.8663 124.139C81.8419 124.084 81.8336 124.023 81.8421 123.963C81.8507 123.903 81.876 123.847 81.9149 123.8L81.9159 123.799L89.7051 114.515L90.1056 114.038L89.9394 113.438L86.7081 101.76L86.708 101.76C86.6848 101.676 86.6958 101.586 86.7387 101.51C86.7813 101.435 86.8517 101.379 86.9348 101.356C87.0066 101.337 87.0783 101.342 87.1411 101.367L87.1437 101.368L98.3794 105.906L98.9572 106.139L99.4769 105.795L109.578 99.1133C109.578 99.1129 109.579 99.1126 109.579 99.1122C109.735 99.0117 109.939 99.0581 110.036 99.2044L110.037 99.2057C110.075 99.264 110.094 99.3338 110.089 99.4036L110.089 99.4048L109.243 111.493Z" stroke="white" stroke-opacity="0.35" stroke-width="2.37"/>
<path d="M248.904 28.1231L239.425 20.5753L240.271 8.48751C240.294 8.15674 240.208 7.82732 240.024 7.55092C239.566 6.85671 238.628 6.66493 237.929 7.12145L227.823 13.8068L216.587 9.26957C216.278 9.14377 215.938 9.12608 215.62 9.21343C215.233 9.32083 214.905 9.57729 214.707 9.92648C214.51 10.2757 214.459 10.689 214.566 11.0757L217.797 22.7536L210.008 32.0374C209.827 32.2532 209.709 32.5155 209.669 32.7946C209.629 33.0737 209.668 33.3585 209.782 33.6166C209.895 33.8747 210.079 34.0958 210.312 34.2548C210.544 34.4139 210.817 34.5045 211.099 34.5164L223.205 35.0504L229.627 45.3259C229.802 45.6081 230.069 45.8243 230.379 45.9396C231.16 46.2313 232.03 45.8367 232.322 45.0555L236.57 33.7059L248.327 30.7717C248.647 30.6908 248.934 30.5082 249.142 30.2465C249.668 29.5969 249.556 28.6456 248.904 28.1231Z" fill="white" fill-opacity="0.35"/>
<path d="M225.243 78.4925L225.199 79.1141L225.687 79.5023L235.163 87.0478C235.163 87.048 235.164 87.0483 235.164 87.0485C235.313 87.169 235.325 87.3721 235.221 87.5003L235.221 87.5002L235.213 87.5106C235.17 87.5639 235.11 87.6038 235.038 87.6224C235.038 87.6225 235.037 87.6226 235.037 87.6227L223.284 90.5562L222.679 90.707L222.461 91.2905L218.212 102.64L218.212 102.641C218.15 102.806 217.965 102.893 217.794 102.829L217.792 102.829C217.724 102.803 217.668 102.756 217.635 102.703L217.632 102.698L211.21 92.4224L210.879 91.894L210.257 91.8666L198.151 91.3326L198.149 91.3325C198.089 91.3299 198.03 91.3105 197.98 91.2763C197.93 91.2422 197.891 91.1947 197.866 91.1393C197.842 91.0839 197.834 91.0228 197.842 90.9629C197.851 90.9029 197.876 90.8466 197.915 90.8003L197.916 90.7991L205.705 81.5153L206.106 81.038L205.939 80.4376L202.708 68.7596L202.708 68.7595C202.685 68.6756 202.696 68.5858 202.739 68.51C202.781 68.4348 202.852 68.3794 202.935 68.3558C203.007 68.3366 203.078 68.3417 203.141 68.3673L203.144 68.3684L214.379 72.9056L214.957 73.139L215.477 72.7952L225.578 66.1133C225.578 66.1129 225.579 66.1126 225.579 66.1122C225.735 66.0117 225.939 66.0581 226.036 66.2044L226.037 66.2057C226.075 66.264 226.094 66.3338 226.089 66.4036L226.089 66.4048L225.243 78.4925Z" stroke="white" stroke-opacity="0.35" stroke-width="2.37"/>
<path d="M521.904 130.123L512.425 122.575L513.271 110.488C513.294 110.157 513.208 109.827 513.024 109.551C512.566 108.857 511.628 108.665 510.929 109.121L500.823 115.807L489.587 111.27C489.278 111.144 488.938 111.126 488.62 111.213C488.233 111.321 487.905 111.577 487.707 111.926C487.51 112.276 487.459 112.689 487.566 113.076L490.797 124.754L483.008 134.037C482.827 134.253 482.709 134.516 482.669 134.795C482.629 135.074 482.668 135.358 482.782 135.617C482.895 135.875 483.079 136.096 483.312 136.255C483.544 136.414 483.817 136.505 484.099 136.516L496.205 137.05L502.627 147.326C502.802 147.608 503.069 147.824 503.379 147.94C504.16 148.231 505.03 147.837 505.322 147.055L509.57 135.706L521.327 132.772C521.647 132.691 521.934 132.508 522.142 132.246C522.668 131.597 522.556 130.646 521.904 130.123Z" fill="white" fill-opacity="0.35"/>
<path d="M405.904 26.1231L396.425 18.5753L397.271 6.48751C397.294 6.15674 397.208 5.82732 397.024 5.55092C396.566 4.85671 395.628 4.66493 394.929 5.12145L384.823 11.8068L373.587 7.26957C373.278 7.14377 372.938 7.12608 372.62 7.21343C372.233 7.32083 371.905 7.57729 371.707 7.92648C371.51 8.27566 371.459 8.689 371.566 9.07565L374.797 20.7536L367.008 30.0374C366.827 30.2532 366.709 30.5155 366.669 30.7946C366.629 31.0737 366.668 31.3585 366.782 31.6166C366.895 31.8747 367.079 32.0958 367.312 32.2548C367.544 32.4139 367.817 32.5045 368.099 32.5164L380.205 33.0504L386.627 43.3259C386.802 43.6081 387.069 43.8243 387.379 43.9396C388.16 44.2313 389.03 43.8367 389.322 43.0555L393.57 31.7059L405.327 28.7717C405.647 28.6908 405.934 28.5082 406.142 28.2465C406.668 27.5969 406.556 26.6456 405.904 26.1231Z" fill="white" fill-opacity="0.35"/>
<path d="M268.243 155.493L268.199 156.114L268.687 156.502L278.163 164.048C278.163 164.048 278.164 164.048 278.164 164.049C278.313 164.169 278.325 164.372 278.221 164.5L278.221 164.5L278.213 164.511C278.17 164.564 278.11 164.604 278.038 164.622C278.038 164.622 278.037 164.623 278.037 164.623L266.284 167.556L265.679 167.707L265.461 168.29L261.212 179.64L261.212 179.641C261.15 179.806 260.965 179.893 260.794 179.829L260.792 179.829C260.724 179.803 260.668 179.756 260.635 179.703L260.632 179.698L254.21 169.422L253.879 168.894L253.257 168.867L241.151 168.333L241.149 168.333C241.089 168.33 241.03 168.31 240.98 168.276C240.93 168.242 240.891 168.195 240.866 168.139C240.842 168.084 240.834 168.023 240.842 167.963C240.851 167.903 240.876 167.847 240.915 167.8L240.916 167.799L248.705 158.515L249.106 158.038L248.939 157.438L245.708 145.76L245.708 145.76C245.685 145.676 245.696 145.586 245.739 145.51C245.781 145.435 245.852 145.379 245.935 145.356C246.007 145.337 246.078 145.342 246.141 145.367L246.144 145.368L257.379 149.906L257.957 150.139L258.477 149.795L268.578 143.113C268.578 143.113 268.579 143.113 268.579 143.112C268.735 143.012 268.939 143.058 269.036 143.204L269.037 143.206C269.075 143.264 269.094 143.334 269.089 143.404L269.089 143.405L268.243 155.493Z" stroke="white" stroke-opacity="0.35" stroke-width="2.37"/>
<path d="M538.243 3.49253L538.199 4.11414L538.687 4.5023L548.163 12.0478C548.163 12.048 548.164 12.0483 548.164 12.0485C548.313 12.169 548.325 12.3721 548.221 12.5003L548.221 12.5002L548.213 12.5106C548.17 12.5639 548.11 12.6038 548.038 12.6224C548.038 12.6225 548.037 12.6226 548.037 12.6227L536.284 15.5562L535.679 15.707L535.461 16.2905L531.212 27.64L531.212 27.6409C531.15 27.8062 530.965 27.8933 530.794 27.8295L530.792 27.8289C530.724 27.8035 530.668 27.7561 530.635 27.7029L530.632 27.6978L524.21 17.4224L523.879 16.894L523.257 16.8666L511.151 16.3326L511.149 16.3325C511.089 16.3299 511.03 16.3105 510.98 16.2763C510.93 16.2422 510.891 16.1947 510.866 16.1393C510.842 16.0839 510.834 16.0228 510.842 15.9629C510.851 15.9029 510.876 15.8466 510.915 15.8003L510.916 15.7991L518.705 6.51529L519.106 6.03803L518.939 5.43761L515.708 -6.24037L515.708 -6.24047C515.685 -6.32442 515.696 -6.41417 515.739 -6.48999C515.781 -6.5652 515.852 -6.62059 515.935 -6.64424C516.007 -6.66344 516.078 -6.65826 516.141 -6.63272L516.144 -6.63164L527.379 -2.09436L527.957 -1.86103L528.477 -2.20483L538.578 -8.8867C538.578 -8.88708 538.579 -8.88745 538.579 -8.88781C538.735 -8.98826 538.939 -8.94194 539.036 -8.79561L539.037 -8.79433C539.075 -8.73595 539.094 -8.66623 539.089 -8.59637L539.089 -8.59523L538.243 3.49253Z" stroke="white" stroke-opacity="0.35" stroke-width="2.37"/>
<path d="M317.904 76.1231L308.425 68.5753L309.271 56.4875C309.294 56.1567 309.208 55.8273 309.024 55.5509C308.566 54.8567 307.628 54.6649 306.929 55.1215L296.823 61.8068L285.587 57.2696C285.278 57.1438 284.938 57.1261 284.62 57.2134C284.233 57.3208 283.905 57.5773 283.707 57.9265C283.51 58.2757 283.459 58.689 283.566 59.0757L286.797 70.7536L279.008 80.0374C278.827 80.2532 278.709 80.5155 278.669 80.7946C278.629 81.0737 278.668 81.3585 278.782 81.6166C278.895 81.8747 279.079 82.0958 279.312 82.2548C279.544 82.4139 279.817 82.5045 280.099 82.5164L292.205 83.0504L298.627 93.3259C298.802 93.6081 299.069 93.8243 299.379 93.9396C300.16 94.2313 301.03 93.8367 301.322 93.0555L305.57 81.7059L317.327 78.7717C317.647 78.6908 317.934 78.5082 318.142 78.2465C318.668 77.5969 318.556 76.6456 317.904 76.1231Z" fill="white" fill-opacity="0.35"/>
<path d="M575.904 83.1231L566.425 75.5753L567.271 63.4875C567.294 63.1567 567.208 62.8273 567.024 62.5509C566.566 61.8567 565.628 61.6649 564.929 62.1215L554.823 68.8068L543.587 64.2696C543.278 64.1438 542.938 64.1261 542.62 64.2134C542.233 64.3208 541.905 64.5773 541.707 64.9265C541.51 65.2757 541.459 65.689 541.566 66.0757L544.797 77.7536L537.008 87.0374C536.827 87.2532 536.709 87.5155 536.669 87.7946C536.629 88.0737 536.668 88.3585 536.782 88.6166C536.895 88.8747 537.079 89.0958 537.312 89.2548C537.544 89.4139 537.817 89.5045 538.099 89.5164L550.205 90.0504L556.627 100.326C556.802 100.608 557.069 100.824 557.379 100.94C558.16 101.231 559.03 100.837 559.322 100.055L563.57 88.7059L575.327 85.7717C575.647 85.6908 575.934 85.5082 576.142 85.2465C576.668 84.5969 576.556 83.6456 575.904 83.1231Z" fill="white" fill-opacity="0.35"/>
<path d="M476.243 51.4925L476.199 52.1141L476.687 52.5023L486.163 60.0478C486.163 60.048 486.164 60.0483 486.164 60.0485C486.313 60.169 486.325 60.3721 486.221 60.5003L486.221 60.5002L486.213 60.5106C486.17 60.5639 486.11 60.6038 486.038 60.6224C486.038 60.6225 486.037 60.6226 486.037 60.6227L474.284 63.5562L473.679 63.707L473.461 64.2905L469.212 75.64L469.212 75.6409C469.15 75.8062 468.965 75.8933 468.794 75.8295L468.792 75.8289C468.724 75.8035 468.668 75.7561 468.635 75.7029L468.632 75.6978L462.21 65.4224L461.879 64.894L461.257 64.8666L449.151 64.3326L449.149 64.3325C449.089 64.3299 449.03 64.3105 448.98 64.2763C448.93 64.2422 448.891 64.1947 448.866 64.1393C448.842 64.0839 448.834 64.0228 448.842 63.9629C448.851 63.9029 448.876 63.8466 448.915 63.8003L448.916 63.7991L456.705 54.5153L457.106 54.038L456.939 53.4376L453.708 41.7596L453.708 41.7595C453.685 41.6756 453.696 41.5858 453.739 41.51C453.781 41.4348 453.852 41.3794 453.935 41.3558C454.007 41.3366 454.078 41.3417 454.141 41.3673L454.144 41.3684L465.379 45.9056L465.957 46.139L466.477 45.7952L476.578 39.1133C476.578 39.1129 476.579 39.1126 476.579 39.1122C476.735 39.0117 476.939 39.0581 477.036 39.2044L477.037 39.2057C477.075 39.264 477.094 39.3338 477.089 39.4036L477.089 39.4048L476.243 51.4925Z" stroke="white" stroke-opacity="0.35" stroke-width="2.37"/>
</svg>
