<svg width="440" height="274" viewBox="0 0 440 274" fill="none" xmlns="http://www.w3.org/2000/svg">
<g clip-path="url(#clip0_4_572)">
<path d="M344.111 18.3965H95.8885C95.6365 18.3911 95.3966 18.2872 95.2202 18.1071C95.0438 17.9269 94.9451 17.6848 94.9451 17.4327C94.9451 17.1806 95.0438 16.9385 95.2202 16.7584C95.3966 16.5782 95.6365 16.4743 95.8885 16.469H344.111C344.363 16.4743 344.603 16.5782 344.779 16.7584C344.956 16.9385 345.055 17.1806 345.055 17.4327C345.055 17.6848 344.956 17.9269 344.779 18.1071C344.603 18.2872 344.363 18.3911 344.111 18.3965Z" fill="#CACACA"/>
<path d="M112.386 11.5481C115.506 11.5481 118.034 8.96299 118.034 5.77407C118.034 2.58515 115.506 1.52588e-05 112.386 1.52588e-05C109.267 1.52588e-05 106.738 2.58515 106.738 5.77407C106.738 8.96299 109.267 11.5481 112.386 11.5481Z" fill="#277FFE"/>
<path d="M131.898 11.5481C135.017 11.5481 137.546 8.96299 137.546 5.77407C137.546 2.58515 135.017 1.52588e-05 131.898 1.52588e-05C128.779 1.52588e-05 126.25 2.58515 126.25 5.77407C126.25 8.96299 128.779 11.5481 131.898 11.5481Z" fill="#277FFE"/>
<path d="M151.41 11.5481C154.529 11.5481 157.058 8.96299 157.058 5.77407C157.058 2.58515 154.529 1.52588e-05 151.41 1.52588e-05C148.29 1.52588e-05 145.761 2.58515 145.761 5.77407C145.761 8.96299 148.29 11.5481 151.41 11.5481Z" fill="#277FFE"/>
<path d="M332.364 1.4312H318.503C318.229 1.43667 317.967 1.54964 317.775 1.74586C317.582 1.94208 317.475 2.20589 317.475 2.48066C317.475 2.75544 317.582 3.01925 317.775 3.21547C317.967 3.41169 318.229 3.52466 318.503 3.53013H332.364C332.638 3.52466 332.9 3.41169 333.092 3.21547C333.285 3.01925 333.392 2.75544 333.392 2.48066C333.392 2.20589 333.285 1.94208 333.092 1.74586C332.9 1.54964 332.638 1.43667 332.364 1.4312Z" fill="#277FFE"/>
<path d="M332.364 5.37057H318.503C318.229 5.37605 317.967 5.48902 317.775 5.68523C317.582 5.88145 317.475 6.14527 317.475 6.42004C317.475 6.69481 317.582 6.95863 317.775 7.15485C317.967 7.35107 318.229 7.46405 318.503 7.46952H332.364C332.638 7.46405 332.9 7.35107 333.092 7.15485C333.285 6.95863 333.392 6.69481 333.392 6.42004C333.392 6.14527 333.285 5.88145 333.092 5.68523C332.9 5.48902 332.638 5.37605 332.364 5.37057Z" fill="#277FFE"/>
<path d="M332.364 9.30479H318.503C318.229 9.31026 317.967 9.42324 317.775 9.61945C317.582 9.81567 317.475 10.0795 317.475 10.3543C317.475 10.629 317.582 10.8929 317.775 11.0891C317.967 11.2853 318.229 11.3983 318.503 11.4037H332.364C332.638 11.3983 332.9 11.2853 333.092 11.0891C333.285 10.8929 333.392 10.629 333.392 10.3543C333.392 10.0795 333.285 9.81567 333.092 9.61945C332.9 9.42324 332.638 9.31026 332.364 9.30479Z" fill="#277FFE"/>
<path d="M304.108 32.0179H285.743C284.364 32.0179 283.246 33.1361 283.246 34.5154V34.5154C283.246 35.8948 284.364 37.013 285.743 37.013H304.108C305.487 37.013 306.605 35.8948 306.605 34.5154C306.605 33.1361 305.487 32.0179 304.108 32.0179Z" fill="#277FFE"/>
<path d="M315.971 42.0082H273.88C272.501 42.0082 271.382 43.1264 271.382 44.5058V44.5058C271.382 45.8851 272.501 47.0033 273.88 47.0033H315.971C317.351 47.0033 318.469 45.8851 318.469 44.5058C318.469 43.1264 317.351 42.0082 315.971 42.0082Z" fill="#D9E2FF"/>
<path d="M315.971 51.9985H273.88C272.501 51.9985 271.382 53.1167 271.382 54.496V54.496C271.382 55.8754 272.501 56.9936 273.88 56.9936H315.971C317.351 56.9936 318.469 55.8754 318.469 54.496C318.469 53.1167 317.351 51.9985 315.971 51.9985Z" fill="#D9E2FF"/>
<path d="M103.436 167.555H91.843C91.5315 167.555 89.8153 166.647 89.8153 165.528V159.087C89.7599 154.216 105.707 153.897 105.767 159.087V165.528C105.767 166.647 104.556 167.555 103.436 167.555Z" fill="#D9E2FF"/>
<path d="M104.036 154.722C103.474 154.521 102.877 154.435 102.28 154.47C102.44 154.418 102.586 154.332 102.71 154.218C102.601 154.214 102.493 154.2 102.387 154.175C102.27 154.153 102.159 154.104 102.065 154.031C102.018 153.994 101.981 153.946 101.958 153.892C101.934 153.837 101.925 153.777 101.93 153.718C101.952 153.571 102.089 153.449 102.075 153.301C102.059 153.131 101.863 153.049 101.758 152.914C101.694 152.813 101.665 152.693 101.675 152.574C101.685 152.454 101.734 152.341 101.813 152.252C101.913 152.136 102.035 152.041 102.172 151.973C101.941 151.914 101.698 151.917 101.468 151.983C101.588 151.89 101.679 151.764 101.728 151.62C101.778 151.476 101.784 151.32 101.746 151.173C101.682 150.988 101.574 150.822 101.43 150.689C101.287 150.556 101.113 150.461 100.924 150.411C100.545 150.315 100.153 150.284 99.7633 150.317C100.094 150.215 100.044 149.697 99.7914 149.461C99.5385 149.224 99.1767 149.126 98.9382 148.875C98.6997 148.624 98.719 148.088 99.0626 148.047L99.0204 147.924C98.8428 147.858 98.6532 147.831 98.4641 147.844C98.2751 147.858 98.0911 147.911 97.9247 148.002C97.7583 148.093 97.6133 148.218 97.4996 148.37C97.3858 148.521 97.306 148.695 97.2654 148.881C97.2025 149.273 97.3198 149.707 97.123 150.052C96.872 150.492 96.2629 150.542 95.7587 150.493C95.2637 150.366 94.7387 150.438 94.2958 150.693C94.158 150.807 94.0594 150.962 94.0137 151.136C93.968 151.309 93.9774 151.493 94.0408 151.66C94.1042 151.828 94.2183 151.972 94.3672 152.072C94.5162 152.172 94.6926 152.223 94.8719 152.218C94.5402 152.22 94.21 152.264 93.889 152.348L94.1982 152.468C94.2669 152.489 94.3304 152.525 94.3844 152.572C94.4108 152.597 94.429 152.629 94.4365 152.664C94.4439 152.699 94.4402 152.736 94.4259 152.769C94.3765 152.858 94.2488 152.855 94.1476 152.84L93.4754 152.739C93.5116 152.751 93.5445 152.771 93.5719 152.797C93.5993 152.824 93.6204 152.856 93.6337 152.892C93.647 152.927 93.6522 152.966 93.6489 153.003C93.6455 153.041 93.6337 153.078 93.6144 153.111C93.595 153.144 93.5685 153.172 93.5369 153.193C93.5053 153.214 93.4694 153.228 93.4318 153.233C93.3941 153.239 93.3557 153.236 93.3193 153.225C93.283 153.214 93.2496 153.194 93.2216 153.168C93.2906 153.249 93.3461 153.34 93.386 153.439C93.4054 153.488 93.4127 153.542 93.4073 153.594C93.4019 153.647 93.3838 153.698 93.3547 153.742C93.2881 153.804 93.204 153.842 93.1143 153.853C93.0245 153.864 92.9336 153.847 92.8543 153.803C92.7995 153.782 92.7445 153.758 92.689 153.735C92.6901 153.755 92.6916 153.774 92.6939 153.794C92.7123 153.922 92.757 154.044 92.8253 154.154C92.8935 154.263 92.9838 154.357 93.0904 154.43C92.7857 154.465 92.5052 154.613 92.3035 154.844C92.1332 155.056 92.0361 155.317 92.0268 155.588C92.0174 155.86 92.0964 156.127 92.2517 156.349C91.9127 156.2 91.5411 156.138 91.1718 156.171C90.9884 156.193 90.8197 156.282 90.6977 156.421C90.5757 156.56 90.5089 156.739 90.51 156.923C90.5712 157.392 91.1514 157.563 91.6202 157.621C95.3074 158.075 99.0363 158.075 102.723 157.62C103.224 157.586 103.715 157.461 104.171 157.252C104.398 157.144 104.594 156.981 104.741 156.778C104.889 156.574 104.982 156.337 105.013 156.087C105.003 155.789 104.905 155.5 104.731 155.257C104.557 155.014 104.316 154.828 104.036 154.722Z" fill="#277FFE"/>
<path d="M106.773 160.149C106.732 159.972 106.632 159.815 106.49 159.702C106.348 159.589 106.171 159.528 105.989 159.529C105.633 159.538 105.315 159.793 104.965 159.737C104.674 159.691 104.446 159.437 104.154 159.476C103.886 159.511 103.742 159.773 103.542 159.914H103.03C102.83 159.757 102.732 159.438 102.455 159.349C102.038 159.215 101.704 159.685 101.267 159.768C101.014 159.796 100.759 159.748 100.534 159.628C100.314 159.509 100.075 159.428 99.8283 159.389C99.7195 159.373 99.6083 159.388 99.5076 159.432C99.4069 159.476 99.3207 159.548 99.2592 159.639C99.2727 159.506 99.0997 159.376 98.9241 159.367C98.7278 159.374 98.5369 159.433 98.3706 159.538C98.2037 159.642 98.0107 159.697 97.8138 159.697C97.3776 159.659 97.1636 159.149 96.725 159.144C96.1728 159.137 95.9519 159.923 95.4059 159.856C95.122 159.821 94.9688 159.564 94.7156 159.453C94.4469 159.371 94.1601 159.368 93.8899 159.445L92.5985 159.687C92.22 159.792 91.8207 159.795 91.4402 159.698C91.1632 159.598 90.8942 159.381 90.6085 159.464C90.3598 159.536 90.2383 159.814 89.9749 159.829C89.8066 159.808 89.6444 159.752 89.4984 159.666C89.3618 159.617 89.214 159.61 89.0735 159.646C88.9331 159.681 88.8062 159.757 88.7089 159.865C88.5643 160.454 88.5409 161.066 88.6401 161.664C88.6362 161.792 88.6463 161.92 88.6702 162.045L89.9691 167.243C90.1218 168.04 90.516 168.616 91.3276 168.616H103.952C104.345 168.616 104.727 168.479 105.03 168.228C105.333 167.978 105.54 167.629 105.614 167.243L106.912 162.045C106.915 162.031 106.917 162.018 106.919 162.005C106.95 161.383 106.901 160.759 106.773 160.149Z" fill="#CCCCCC"/>
<path opacity="0.2" d="M91.3381 159.758L91.5905 163.039C91.6746 164.133 91.5501 165.211 91.6342 166.305C91.6816 166.921 91.9377 167.552 91.9851 168.168C91.9906 168.24 92.1044 168.241 92.0987 168.168L91.8463 164.887L91.5939 161.606L91.4518 159.758C91.4462 159.686 91.3325 159.685 91.3381 159.758Z" fill="black"/>
<path opacity="0.2" d="M93.5303 159.888L93.6287 163.121L93.727 166.354L93.7822 168.169C93.7845 168.242 93.8981 168.243 93.8959 168.169L93.7976 164.936L93.6992 161.703L93.644 159.888C93.6418 159.815 93.5281 159.815 93.5303 159.888Z" fill="black"/>
<path opacity="0.2" d="M95.6544 160.082L95.6245 163.207L95.5947 166.312L95.5779 168.073C95.5784 168.088 95.5846 168.102 95.5952 168.112C95.6058 168.122 95.62 168.128 95.6347 168.128C95.6495 168.128 95.6636 168.122 95.6742 168.112C95.6848 168.102 95.691 168.088 95.6916 168.073L95.7215 164.949L95.7512 161.843L95.7681 160.082C95.7675 160.067 95.7613 160.053 95.7507 160.043C95.7401 160.033 95.726 160.027 95.7112 160.027C95.6965 160.027 95.6823 160.033 95.6717 160.043C95.6611 160.053 95.6549 160.067 95.6544 160.082V160.082Z" fill="black"/>
<path opacity="0.2" d="M97.259 159.987L97.3212 163.15L97.3831 166.294L97.4181 168.074C97.4186 168.089 97.4248 168.103 97.4354 168.113C97.446 168.123 97.4602 168.129 97.4749 168.129C97.4897 168.129 97.5039 168.123 97.5145 168.113C97.5251 168.103 97.5313 168.089 97.5318 168.074L97.4696 164.911L97.4077 161.767L97.3727 159.987C97.3722 159.972 97.366 159.958 97.3554 159.948C97.3448 159.937 97.3306 159.932 97.3159 159.932C97.3011 159.932 97.287 159.937 97.2764 159.948C97.2658 159.958 97.2595 159.972 97.259 159.987V159.987Z" fill="black"/>
<path opacity="0.2" d="M99.5977 159.857L99.6688 163.104L99.7399 166.352L99.7797 168.169C99.7802 168.184 99.7864 168.198 99.797 168.208C99.8076 168.219 99.8218 168.224 99.8366 168.224C99.8513 168.224 99.8654 168.219 99.8761 168.208C99.8867 168.198 99.8929 168.184 99.8934 168.169L99.8223 164.922L99.7511 161.675L99.7113 159.857C99.7107 159.842 99.7044 159.828 99.6938 159.818C99.6832 159.808 99.6691 159.802 99.6545 159.802C99.6398 159.802 99.6257 159.808 99.6151 159.818C99.6046 159.828 99.5983 159.842 99.5977 159.857Z" fill="black"/>
<path opacity="0.2" d="M101.539 159.955L101.787 163.227L102.034 166.49L102.173 168.329C102.179 168.401 102.292 168.402 102.287 168.329L102.039 165.057L101.792 161.794L101.652 159.955C101.647 159.883 101.533 159.882 101.539 159.955Z" fill="black"/>
<path opacity="0.2" d="M103.696 160.336L103.845 163.33C103.895 164.328 103.642 165.326 103.691 166.324L103.775 168.005C103.779 168.078 103.893 168.079 103.889 168.005C103.839 167.007 104.092 166.009 104.043 165.011L103.893 162.018L103.809 160.336C103.806 160.264 103.692 160.263 103.696 160.336Z" fill="black"/>
<path d="M97.1093 152.134C97.35 152.134 97.5451 151.998 97.5451 151.831C97.5451 151.663 97.35 151.528 97.1093 151.528C96.8687 151.528 96.6736 151.663 96.6736 151.831C96.6736 151.998 96.8687 152.134 97.1093 152.134Z" fill="#D9E2FF"/>
<path d="M99.8754 152.816C100.116 152.816 100.311 152.68 100.311 152.513C100.311 152.345 100.116 152.21 99.8754 152.21C99.6348 152.21 99.4397 152.345 99.4397 152.513C99.4397 152.68 99.6348 152.816 99.8754 152.816Z" fill="#277FFE"/>
<path d="M96.0105 154.294C96.2511 154.294 96.4462 154.158 96.4462 153.991C96.4462 153.823 96.2511 153.687 96.0105 153.687C95.7698 153.687 95.5747 153.823 95.5747 153.991C95.5747 154.158 95.7698 154.294 96.0105 154.294Z" fill="#FF6584"/>
<path d="M99.6135 154.693C99.7656 154.693 99.8889 154.607 99.8889 154.502C99.8889 154.396 99.7656 154.31 99.6135 154.31C99.4614 154.31 99.3381 154.396 99.3381 154.502C99.3381 154.607 99.4614 154.693 99.6135 154.693Z" fill="#D9E2FF"/>
<path d="M101.362 155.124C101.514 155.124 101.637 155.038 101.637 154.933C101.637 154.827 101.514 154.741 101.362 154.741C101.21 154.741 101.086 154.827 101.086 154.933C101.086 155.038 101.21 155.124 101.362 155.124Z" fill="#277FFE"/>
<path d="M98.9192 156.058C99.0713 156.058 99.1946 155.972 99.1946 155.867C99.1946 155.761 99.0713 155.675 98.9192 155.675C98.7671 155.675 98.6438 155.761 98.6438 155.867C98.6438 155.972 98.7671 156.058 98.9192 156.058Z" fill="#FF6584"/>
<path d="M102.19 155.754C102.342 155.754 102.466 155.668 102.466 155.563C102.466 155.457 102.342 155.371 102.19 155.371C102.038 155.371 101.915 155.457 101.915 155.563C101.915 155.668 102.038 155.754 102.19 155.754Z" fill="#D9E2FF"/>
<path d="M103.938 156.185C104.091 156.185 104.214 156.099 104.214 155.994C104.214 155.888 104.091 155.802 103.938 155.802C103.786 155.802 103.663 155.888 103.663 155.994C103.663 156.099 103.786 156.185 103.938 156.185Z" fill="#277FFE"/>
<path d="M101.496 157.119C101.648 157.119 101.771 157.033 101.771 156.928C101.771 156.822 101.648 156.736 101.496 156.736C101.344 156.736 101.22 156.822 101.22 156.928C101.22 157.033 101.344 157.119 101.496 157.119Z" fill="#FF6584"/>
<path d="M95.0917 154.744C95.1125 154.593 95.0443 154.459 94.9395 154.445C94.8347 154.43 94.7329 154.541 94.7121 154.691C94.6914 154.842 94.7595 154.976 94.8643 154.99C94.9692 155.005 95.0709 154.894 95.0917 154.744Z" fill="#D9E2FF"/>
<path d="M94.4262 156.417C94.4469 156.266 94.3788 156.132 94.274 156.118C94.1692 156.103 94.0674 156.214 94.0466 156.364C94.0259 156.515 94.094 156.649 94.1988 156.663C94.3036 156.678 94.4054 156.567 94.4262 156.417Z" fill="#277FFE"/>
<path d="M93.8341 153.869C93.8549 153.719 93.7868 153.585 93.6819 153.57C93.5771 153.556 93.4753 153.666 93.4546 153.817C93.4338 153.968 93.502 154.102 93.6068 154.116C93.7116 154.13 93.8134 154.02 93.8341 153.869Z" fill="#FF6584"/>
<path d="M98.0851 153.834C98.1059 153.684 98.0377 153.55 97.9329 153.535C97.8281 153.521 97.7263 153.631 97.7056 153.782C97.6848 153.933 97.7529 154.067 97.8577 154.081C97.9626 154.095 98.0644 153.985 98.0851 153.834Z" fill="#D9E2FF"/>
<path d="M97.4196 155.507C97.4403 155.357 97.3722 155.223 97.2674 155.208C97.1626 155.194 97.0608 155.304 97.04 155.455C97.0193 155.606 97.0874 155.739 97.1922 155.754C97.297 155.768 97.3988 155.658 97.4196 155.507Z" fill="#277FFE"/>
<path d="M96.8275 152.96C96.8483 152.809 96.7802 152.676 96.6754 152.661C96.5705 152.647 96.4688 152.757 96.448 152.908C96.4272 153.058 96.4954 153.192 96.6002 153.207C96.705 153.221 96.8068 153.111 96.8275 152.96Z" fill="#FF6584"/>
<path d="M98.8959 151.983C98.9167 151.832 98.8485 151.698 98.7437 151.684C98.6389 151.669 98.5371 151.78 98.5163 151.93C98.4956 152.081 98.5637 152.215 98.6685 152.229C98.7733 152.244 98.8751 152.133 98.8959 151.983Z" fill="#277FFE"/>
<path d="M98.3053 149.436C98.3261 149.286 98.2579 149.152 98.1531 149.137C98.0483 149.123 97.9465 149.233 97.9258 149.384C97.905 149.535 97.9731 149.668 98.0779 149.683C98.1828 149.697 98.2846 149.587 98.3053 149.436Z" fill="#FF6584"/>
<path d="M204.338 119.537C206.565 119.537 208.37 118.281 208.37 116.732C208.37 115.184 206.565 113.928 204.338 113.928C202.112 113.928 200.307 115.184 200.307 116.732C200.307 118.281 202.112 119.537 204.338 119.537Z" fill="#D9E2FF"/>
<path d="M229.929 125.847C232.155 125.847 233.96 124.591 233.96 123.042C233.96 121.493 232.155 120.238 229.929 120.238C227.702 120.238 225.897 121.493 225.897 123.042C225.897 124.591 227.702 125.847 229.929 125.847Z" fill="#277FFE"/>
<path d="M194.173 139.518C196.399 139.518 198.204 138.262 198.204 136.714C198.204 135.165 196.399 133.909 194.173 133.909C191.946 133.909 190.142 135.165 190.142 136.714C190.142 138.262 191.946 139.518 194.173 139.518Z" fill="#FF6584"/>
<path d="M251.345 153.029C252.752 153.029 253.893 152.236 253.893 151.257C253.893 150.278 252.752 149.485 251.345 149.485C249.938 149.485 248.798 150.278 248.798 151.257C248.798 152.236 249.938 153.029 251.345 153.029Z" fill="#D9E2FF"/>
<path d="M267.519 157.017C268.926 157.017 270.066 156.224 270.066 155.245C270.066 154.266 268.926 153.473 267.519 153.473C266.112 153.473 264.971 154.266 264.971 155.245C264.971 156.224 266.112 157.017 267.519 157.017Z" fill="#277FFE"/>
<path d="M185.671 143.68C185.863 142.286 185.232 141.048 184.263 140.914C183.293 140.781 182.351 141.802 182.159 143.196C181.967 144.59 182.598 145.828 183.567 145.962C184.537 146.096 185.479 145.074 185.671 143.68Z" fill="#D9E2FF"/>
<path d="M179.514 159.158C179.706 157.764 179.076 156.526 178.106 156.392C177.136 156.258 176.194 157.28 176.002 158.674C175.81 160.068 176.441 161.306 177.41 161.44C178.38 161.573 179.322 160.552 179.514 159.158Z" fill="#277FFE"/>
<path d="M174.039 135.592C174.231 134.198 173.601 132.96 172.631 132.826C171.661 132.693 170.72 133.715 170.527 135.108C170.335 136.502 170.966 137.741 171.935 137.874C172.905 138.008 173.847 136.986 174.039 135.592Z" fill="#FF6584"/>
<path d="M213.365 135.268C213.557 133.874 212.927 132.635 211.957 132.502C210.987 132.368 210.046 133.39 209.854 134.784C209.662 136.178 210.292 137.416 211.262 137.55C212.231 137.683 213.173 136.661 213.365 135.268Z" fill="#D9E2FF"/>
<path d="M201.732 127.179C201.924 125.785 201.294 124.547 200.324 124.413C199.355 124.28 198.413 125.301 198.221 126.695C198.029 128.089 198.659 129.328 199.629 129.461C200.599 129.595 201.54 128.573 201.732 127.179Z" fill="#FF6584"/>
<path d="M309.402 263.045C309.662 263.057 309.919 262.989 310.138 262.85C310.358 262.711 310.529 262.508 310.629 262.268C310.729 262.029 310.753 261.764 310.698 261.51C310.643 261.256 310.511 261.026 310.32 260.849C310.288 260.723 310.266 260.631 310.234 260.504C310.482 259.874 310.913 259.331 311.471 258.947C312.03 258.563 312.69 258.354 313.368 258.348C314.046 258.342 314.71 258.538 315.276 258.911C315.841 259.285 316.282 259.819 316.542 260.445C318.044 263.959 319.986 267.596 319.02 271.466C325.402 257.94 323.232 241.115 313.8 229.548C312.47 228.841 311.31 227.853 310.4 226.653C309.489 225.453 308.851 224.069 308.53 222.597C309.82 223.035 311.429 221.985 310.459 220.626C310.038 220.107 309.614 219.591 309.193 219.072C314.094 213.852 319.934 222.056 314.539 229.101C316.304 231.313 317.833 233.704 319.1 236.235C318.808 233.548 319.157 230.83 320.12 228.304C321.095 225.95 322.924 223.968 324.535 221.933C324.966 221.381 325.552 220.97 326.219 220.754C326.885 220.538 327.601 220.527 328.274 220.722C328.947 220.917 329.546 221.309 329.994 221.848C330.442 222.386 330.718 223.047 330.787 223.744C328.98 224.338 328.745 226.948 330.812 227.305C330.497 230.23 329.449 233.029 327.766 235.441C326.082 237.853 323.817 239.801 321.18 241.105C323.125 246.563 323.884 252.372 323.407 258.146C324.337 251.398 331.581 249.76 336.644 247.078C336.966 246.872 337.341 246.763 337.724 246.766C338.107 246.769 338.48 246.884 338.799 247.095C339.118 247.307 339.369 247.607 339.52 247.959C339.671 248.311 339.717 248.699 339.651 249.076C338.953 249.36 338.284 249.713 337.655 250.129C337.36 250.327 337.134 250.612 337.007 250.944C336.88 251.275 336.859 251.638 336.947 251.982C337.034 252.327 337.226 252.635 337.496 252.866C337.766 253.097 338.101 253.239 338.455 253.272C335.902 259.588 329.304 263.829 322.528 263.806C321.877 266.635 320.933 269.39 319.712 272.025H309.655C309.618 271.913 309.586 271.798 309.554 271.686C310.485 271.745 311.419 271.689 312.337 271.52C309.874 268.604 307.969 267.116 309.402 263.045L309.402 263.045Z" fill="#F2F2F2"/>
<path d="M112.468 262.894C112.208 262.906 111.951 262.838 111.732 262.699C111.512 262.56 111.341 262.357 111.241 262.118C111.141 261.878 111.117 261.613 111.172 261.36C111.227 261.106 111.359 260.875 111.55 260.699L111.636 260.354C111.388 259.723 110.957 259.181 110.399 258.797C109.84 258.413 109.18 258.204 108.502 258.198C107.824 258.191 107.16 258.387 106.594 258.761C106.029 259.134 105.588 259.668 105.328 260.294C103.827 263.808 101.884 267.445 102.85 271.316C96.4679 257.79 98.6382 240.964 108.07 229.397C109.4 228.69 110.56 227.703 111.471 226.502C112.381 225.302 113.019 223.918 113.34 222.447C112.05 222.884 110.441 221.835 111.411 220.475C111.832 219.956 112.257 219.441 112.677 218.921C107.776 213.701 101.936 221.905 107.331 228.95C105.566 231.163 104.037 233.554 102.77 236.084C103.063 233.397 102.713 230.679 101.75 228.154C100.775 225.8 98.9458 223.817 97.3353 221.782C96.9044 221.23 96.3179 220.819 95.6514 220.604C94.985 220.388 94.2692 220.377 93.5963 220.571C92.9234 220.766 92.3244 221.158 91.8765 221.697C91.4286 222.236 91.1523 222.896 91.0834 223.593C92.8905 224.187 93.1253 226.798 91.0581 227.155C91.3728 230.08 92.4206 232.878 94.1044 235.29C95.7882 237.702 98.0535 239.651 100.691 240.955C98.7455 246.412 97.9861 252.221 98.4627 257.995C97.533 251.247 90.2894 249.61 85.2265 246.928C84.9043 246.721 84.5289 246.613 84.1461 246.616C83.7633 246.619 83.3897 246.733 83.0708 246.945C82.7519 247.157 82.5015 247.457 82.3502 247.808C82.199 248.16 82.1533 248.548 82.2188 248.925C82.9176 249.209 83.5864 249.562 84.2154 249.979C84.5102 250.177 84.7364 250.461 84.8631 250.793C84.9899 251.125 85.0109 251.488 84.9233 251.832C84.8357 252.176 84.6438 252.485 84.3739 252.716C84.104 252.947 83.7692 253.088 83.4156 253.121C85.9677 259.438 92.5657 263.679 99.3423 263.655C99.9935 266.485 100.937 269.24 102.158 271.874H112.216C112.252 271.763 112.284 271.647 112.317 271.535C111.386 271.594 110.451 271.538 109.533 271.37C111.997 268.453 113.901 266.966 112.468 262.894L112.468 262.894Z" fill="#F2F2F2"/>
<path d="M137.667 145.146L136.597 138.945L152.861 131.601L156.374 125.382C156.26 124.836 156.3 124.27 156.488 123.745C156.677 123.221 157.006 122.758 157.441 122.409C157.875 122.06 158.398 121.838 158.951 121.767C159.504 121.697 160.065 121.78 160.574 122.009C161.082 122.237 161.517 122.602 161.832 123.062C162.146 123.523 162.327 124.061 162.354 124.618C162.382 125.174 162.255 125.728 161.987 126.217C161.72 126.706 161.323 127.112 160.84 127.389L155.061 136.322L137.667 145.146Z" fill="#A0616A"/>
<path d="M132.723 140.076L140.047 136.336L141.986 143.616L136.899 147.387L132.723 140.076Z" fill="#277FFE"/>
<path d="M116.287 263.824H120.715L122.822 246.742H116.286L116.287 263.824Z" fill="#A0616A"/>
<path d="M122.189 264.222V261.22L121.025 261.291L116.286 261.572L115.189 261.639L114.35 271.694L114.305 272.233H117.45L117.551 271.698L118.008 269.265L119.187 271.698L119.445 272.233H127.782C128.278 272.23 128.753 272.032 129.103 271.68C129.454 271.329 129.652 270.854 129.654 270.358C130.006 268.715 123.073 265.162 122.189 264.222Z" fill="#2F2E41"/>
<path d="M63.825 247.879L67.4457 250.429L79.0055 237.678L73.6617 233.914L63.825 247.879Z" fill="#A0616A"/>
<path d="M68.5501 251.278L70.2792 248.824L69.2864 248.212L65.2503 245.712L64.3148 245.135L57.8384 252.872L57.4912 253.287L60.0619 255.098L60.4528 254.719L62.2276 252.992L61.7902 255.661L61.6931 256.247L68.5085 261.049C68.9159 261.332 69.4185 261.443 69.9073 261.357C70.396 261.272 70.8314 260.998 71.1188 260.593C72.353 259.452 68.7312 252.555 68.5501 251.278Z" fill="#2F2E41"/>
<path d="M123.134 153.271L117.434 150.606L106.066 164.363L99.1423 166.114C98.6457 165.861 98.0889 165.75 97.5332 165.794C96.9775 165.837 96.4447 166.033 95.9936 166.361C95.5424 166.688 95.1906 167.134 94.9768 167.649C94.763 168.163 94.6957 168.727 94.7823 169.278C94.8689 169.828 95.1059 170.344 95.4673 170.769C95.8287 171.193 96.3004 171.509 96.8302 171.682C97.36 171.855 97.9273 171.879 98.4695 171.75C99.0117 171.62 99.5077 171.344 99.9027 170.951L110.042 167.729L123.134 153.271Z" fill="#A0616A"/>
<path d="M117.388 175.43C117.388 175.43 108.035 181.52 110.508 185.567C110.593 185.707 90.5859 213.484 90.5859 213.484L68.1509 237.671L75.8629 244.682C75.8629 244.682 97.1763 222.488 100.752 218.742C104.327 214.995 119.944 196.252 119.944 196.252L120.519 219.415L114.54 251.513L123.467 250.947L132.156 218.745L135.363 182.269L117.388 175.43Z" fill="#2F2E41"/>
<path d="M124.05 138.879L120.117 141.86L115.634 151.427L119.945 157.282C119.945 157.282 123.571 163.566 117.767 169.652C111.963 175.738 107.506 182.238 112.151 182.005C116.797 181.773 135.612 191.343 135.735 183.503C135.859 175.663 136.11 169.652 136.11 169.652L141.043 157.14C141.043 157.14 143.982 149.677 141.918 147.443C139.855 145.208 137.092 142.353 137.092 142.353L132.068 137.329H127.532L124.05 138.879Z" fill="#277FFE"/>
<path d="M131.392 120.496C140.215 125.517 132.972 138.764 123.984 134.047C115.16 129.026 122.404 115.779 131.392 120.496Z" fill="#A0616A"/>
<path d="M136.11 123.28C135.492 124.084 134.2 123.707 131.67 124.281C131.676 123.423 131.577 122.568 131.375 121.735C131.187 122.767 130.775 123.745 130.167 124.6C127.971 124.844 130.663 131.516 129.539 136.422C128.09 126.072 125.042 128.784 126.582 130.837C127.567 132.151 126.91 136.094 123.953 134.122C119.074 136.441 112.125 124.923 119.827 119.521C119.689 116.601 122.938 116.14 124.939 117.037C129.794 113.42 135.341 118.055 136.11 123.28Z" fill="#2F2E41"/>
<path d="M113.471 115.728C111.506 127.806 100.977 113.506 96.0264 125.392C94.4699 129.697 97.1406 132.776 98.8299 136.349C99.2154 139.285 95.3956 140.775 94.9956 143.477C94.8842 149.674 104.881 149.295 107.676 145.385C110.547 141.293 107.118 135.802 108.844 131.409C111.27 125.311 121.136 125.266 121.995 118.17C120.331 115.8 115.855 113.085 113.471 115.728Z" fill="#2F2E41"/>
<path d="M121.429 116.908C121.364 116.935 121.3 116.962 121.243 116.992H121.239C121.185 117.02 121.131 117.047 121.077 117.077C121.07 117.08 121.067 117.084 121.06 117.087C120.989 117.02 120.918 116.952 120.844 116.884C120.824 116.994 120.829 117.107 120.857 117.216L120.867 117.256C120.935 117.327 121.006 117.395 121.08 117.466C121.148 117.415 121.212 117.361 121.28 117.31C121.32 117.277 121.361 117.243 121.405 117.209C121.412 117.121 121.422 117.02 121.432 116.908L121.429 116.908ZM123.465 113.147C121.956 112.802 121.469 114.774 121.324 115.724C120.776 112.274 118.496 113.36 119.284 115.714C119.536 116.411 119.931 117.047 120.444 117.581C120.516 117.662 120.593 117.743 120.674 117.825C120.583 118.298 121.043 118.176 121.665 117.74C122.125 117.413 122.55 117.04 122.934 116.627C124.175 115.325 125.143 113.583 123.465 113.147ZM123.512 115.088C123.047 115.688 122.525 116.242 121.953 116.742C121.774 116.905 121.591 117.06 121.405 117.209C121.402 117.239 121.402 117.266 121.398 117.29C121.385 117.323 121.369 117.355 121.351 117.385C121.162 117.726 120.948 117.54 120.867 117.256C120.86 117.246 120.85 117.236 120.844 117.226C120.573 116.947 120.338 116.635 120.143 116.299C118.747 113.877 120.996 112.23 120.884 116.752C120.864 116.794 120.85 116.838 120.844 116.884C120.824 116.994 120.829 117.107 120.857 117.216L120.867 117.256C120.935 117.327 121.006 117.395 121.08 117.466C121.148 117.415 121.212 117.361 121.28 117.31C121.32 117.277 121.361 117.243 121.405 117.209C121.412 117.121 121.422 117.02 121.432 116.908V116.905C121.52 115.998 121.76 114.368 122.203 113.925C123.177 113.177 124.439 113.986 123.512 115.088H123.512ZM121.429 116.908C121.364 116.935 121.3 116.962 121.243 116.992H121.239C121.185 117.02 121.131 117.047 121.077 117.077C121.07 117.08 121.067 117.084 121.06 117.087C120.989 117.02 120.918 116.952 120.844 116.884C120.824 116.994 120.829 117.107 120.857 117.216L120.867 117.256C120.935 117.327 121.006 117.395 121.08 117.466C121.148 117.415 121.212 117.361 121.28 117.31C121.32 117.277 121.361 117.243 121.405 117.209C121.412 117.121 121.422 117.02 121.432 116.908L121.429 116.908Z" fill="#2F2E41"/>
<path d="M307.236 264.533L302.905 265.518L297.042 249.28L303.435 247.826L307.236 264.533Z" fill="#FFB6B6"/>
<path d="M308.417 269.017L295.098 272.047L295.059 271.879C294.746 270.504 294.993 269.061 295.744 267.867C296.495 266.674 297.689 265.828 299.064 265.515L299.064 265.515L301.077 263.115L306.037 263.928L307.199 263.664L308.417 269.017Z" fill="#2F2E41"/>
<path d="M363.719 255.997L359.978 258.392L348.959 245.102L354.481 241.566L363.719 255.997Z" fill="#FFB6B6"/>
<path d="M366.35 259.815L354.846 267.181L354.752 267.035C353.992 265.848 353.735 264.407 354.037 263.029C354.339 261.652 355.176 260.451 356.363 259.691L356.363 259.69L357.444 256.751L362.386 255.835L363.39 255.192L366.35 259.815Z" fill="#2F2E41"/>
<path d="M304.353 183.643L301.095 192.142L285.808 222.296L299.24 257.374L306.173 255.544L300.459 222.296L316.852 202.377L326.369 222.843L353.712 252.989L360.022 248.783L339.69 217.584L326.151 178.019L304.353 183.643Z" fill="#2F2E41"/>
<path d="M320.796 143.556L315.432 137.793L306.23 136.527L294.955 144.42L295.069 153.157L300.642 173.744C300.642 173.744 298.519 188.535 304.449 188.387C310.379 188.239 313.611 185.282 316.027 185.884C318.442 186.486 328.709 189.047 329.359 186.364C330.01 183.682 333.468 185.603 333.317 183.065C333.165 180.527 323.954 162.233 323.954 162.233L325.566 149.356C325.65 148.682 325.601 147.998 325.421 147.344C325.241 146.689 324.934 146.076 324.517 145.54C324.101 145.004 323.582 144.556 322.992 144.22C322.402 143.884 321.752 143.668 321.078 143.584C320.984 143.572 320.89 143.563 320.796 143.556L320.796 143.556Z" fill="#277FFE"/>
<path d="M357.815 179.868C357.345 179.968 356.859 179.964 356.391 179.855C355.923 179.747 355.484 179.537 355.106 179.241C354.728 178.945 354.42 178.569 354.202 178.141C353.985 177.712 353.864 177.241 353.849 176.761L329.185 167.051L333.879 163.206L357.261 173.331C358.069 173.358 358.839 173.681 359.426 174.238C360.012 174.795 360.373 175.548 360.442 176.354C360.51 177.159 360.28 177.962 359.796 178.61C359.312 179.258 358.607 179.706 357.815 179.868Z" fill="#FFB6B6"/>
<path d="M322.881 144.625C322.881 144.625 318.679 144.592 318.163 149.375C317.648 154.158 326.457 166.287 327.818 168.285C328.244 168.91 330.076 169.622 332.392 170.304C333.431 170.611 334.568 170.911 335.719 171.195C336.385 171.36 336.682 172.464 337.342 172.615C337.997 172.766 339.015 171.964 339.632 172.098C342.56 172.734 344.875 173.158 344.875 173.158L350.351 169.426C347.588 165.348 342.304 163.679 336.317 162.682L322.881 144.625Z" fill="#277FFE"/>
<path d="M261.058 122.414C261.132 122.889 261.308 123.342 261.575 123.741C261.842 124.141 262.194 124.476 262.605 124.725C263.015 124.974 263.476 125.129 263.954 125.181C264.431 125.232 264.914 125.179 265.369 125.023L283.184 144.65L285.118 138.899L267.369 120.617C267.057 119.871 266.482 119.265 265.754 118.914C265.025 118.563 264.193 118.491 263.415 118.713C262.638 118.934 261.968 119.434 261.534 120.116C261.099 120.798 260.93 121.616 261.058 122.414Z" fill="#FFB6B6"/>
<path d="M306.389 142.604C306.389 142.604 307.907 146.522 303.617 148.698C299.327 150.874 284.864 146.931 282.514 146.365C281.778 146.188 280.463 144.727 279.005 142.803C278.351 141.94 277.667 140.983 276.994 140.007C276.604 139.443 275.466 139.555 275.091 138.992C274.718 138.432 275.108 137.197 274.764 136.668C273.132 134.154 271.916 132.139 271.916 132.139L273.467 125.697C278.26 126.836 281.691 131.187 284.744 136.433L306.389 142.604Z" fill="#277FFE"/>
<path d="M311.015 135.061C315.85 135.061 319.77 131.141 319.77 126.306C319.77 121.47 315.85 117.55 311.015 117.55C306.179 117.55 302.259 121.47 302.259 126.306C302.259 131.141 306.179 135.061 311.015 135.061Z" fill="#FFB6B6"/>
<path d="M321.009 121.293C320.56 120.569 319.916 119.988 319.151 119.615C318.386 119.242 317.531 119.093 316.684 119.185C316.528 118.116 316.082 117.11 315.394 116.277C314.706 115.444 313.803 114.815 312.782 114.46C311.762 114.105 310.663 114.036 309.606 114.262C308.55 114.488 307.575 114.999 306.789 115.74C306.531 115.558 306.229 115.446 305.915 115.415C305.6 115.383 305.283 115.434 304.993 115.561C304.417 115.823 303.915 116.226 303.534 116.732C302.573 117.931 301.954 119.368 301.745 120.89C301.536 122.413 301.743 123.964 302.345 125.377C302.14 124.633 302.886 123.933 303.64 123.766C304.394 123.599 305.184 123.757 305.949 123.648C306.928 123.509 307.809 122.94 308.79 122.812C309.622 122.758 310.457 122.866 311.248 123.128C312.039 123.391 312.872 123.503 313.705 123.458C314.531 123.36 315.594 126.49 315.58 128.694C315.577 129.112 315.663 129.648 316.072 129.737C316.574 129.846 316.866 129.152 317.344 128.963C317.565 128.9 317.801 128.925 318.004 129.032C318.206 129.14 318.359 129.322 318.43 129.54C318.49 129.762 318.497 129.995 318.449 130.22C318.401 130.445 318.3 130.655 318.155 130.833C317.86 131.185 317.511 131.488 317.121 131.73L317.318 131.894C317.505 132.091 317.755 132.218 318.025 132.251C318.295 132.285 318.568 132.223 318.798 132.077C319.25 131.771 319.616 131.355 319.861 130.867C320.784 129.439 321.444 127.857 321.81 126.196C322.171 124.519 321.885 122.768 321.009 121.293Z" fill="#2F2E41"/>
<path d="M220.879 118.144C221.071 116.75 220.44 115.512 219.471 115.378C218.501 115.244 217.559 116.266 217.367 117.66C217.175 119.054 217.805 120.292 218.775 120.426C219.745 120.559 220.687 119.538 220.879 118.144Z" fill="#277FFE"/>
<path d="M364.148 177.947H352.555C352.243 177.947 350.527 177.039 350.527 175.92V169.479C350.472 164.608 366.419 164.289 366.479 169.479V175.92C366.479 177.039 365.268 177.947 364.148 177.947Z" fill="#D9E2FF"/>
<path d="M364.748 165.114C364.186 164.913 363.589 164.827 362.992 164.862C363.152 164.81 363.298 164.724 363.422 164.61C363.313 164.606 363.205 164.591 363.099 164.567C362.982 164.545 362.871 164.496 362.777 164.423C362.73 164.386 362.693 164.338 362.67 164.284C362.646 164.229 362.637 164.169 362.642 164.11C362.664 163.963 362.801 163.841 362.787 163.693C362.771 163.523 362.575 163.441 362.47 163.306C362.406 163.205 362.377 163.085 362.387 162.966C362.397 162.846 362.446 162.733 362.525 162.644C362.625 162.528 362.747 162.433 362.884 162.365C362.653 162.306 362.41 162.309 362.18 162.375C362.3 162.282 362.391 162.156 362.44 162.012C362.49 161.868 362.496 161.712 362.458 161.565C362.394 161.38 362.286 161.214 362.142 161.081C361.999 160.948 361.825 160.853 361.636 160.803C361.257 160.707 360.865 160.676 360.475 160.709C360.806 160.607 360.756 160.089 360.503 159.853C360.25 159.616 359.889 159.518 359.65 159.267C359.412 159.016 359.431 158.48 359.775 158.439L359.732 158.316C359.555 158.25 359.365 158.223 359.176 158.236C358.987 158.249 358.803 158.303 358.637 158.394C358.47 158.485 358.325 158.61 358.212 158.762C358.098 158.913 358.018 159.087 357.977 159.273C357.914 159.665 358.032 160.099 357.835 160.444C357.584 160.884 356.975 160.934 356.471 160.885C355.976 160.758 355.451 160.83 355.008 161.084C354.87 161.199 354.771 161.354 354.726 161.528C354.68 161.701 354.689 161.885 354.753 162.052C354.816 162.22 354.93 162.364 355.079 162.464C355.228 162.564 355.405 162.615 355.584 162.61C355.252 162.612 354.922 162.656 354.601 162.74L354.91 162.86C354.979 162.881 355.042 162.917 355.096 162.964C355.123 162.989 355.141 163.021 355.148 163.056C355.156 163.091 355.152 163.128 355.138 163.161C355.088 163.25 354.961 163.247 354.859 163.232L354.187 163.131C354.223 163.143 354.256 163.163 354.284 163.189C354.311 163.216 354.332 163.248 354.346 163.284C354.359 163.319 354.364 163.357 354.361 163.395C354.357 163.433 354.346 163.47 354.326 163.503C354.307 163.536 354.28 163.564 354.249 163.585C354.217 163.606 354.181 163.62 354.144 163.625C354.106 163.631 354.068 163.628 354.031 163.617C353.995 163.605 353.962 163.586 353.934 163.56C354.003 163.641 354.058 163.732 354.098 163.831C354.117 163.88 354.125 163.933 354.119 163.986C354.114 164.039 354.096 164.09 354.067 164.134C354 164.195 353.916 164.234 353.826 164.245C353.736 164.256 353.646 164.239 353.566 164.195C353.511 164.174 353.456 164.15 353.401 164.127C353.402 164.147 353.404 164.166 353.406 164.186C353.424 164.313 353.469 164.436 353.537 164.545C353.605 164.655 353.696 164.749 353.802 164.822C353.498 164.857 353.217 165.005 353.015 165.236C352.845 165.448 352.748 165.709 352.739 165.98C352.729 166.252 352.808 166.519 352.964 166.741C352.625 166.591 352.253 166.53 351.884 166.562C351.7 166.585 351.532 166.674 351.41 166.813C351.288 166.952 351.221 167.131 351.222 167.315C351.283 167.784 351.863 167.955 352.332 168.013C356.019 168.467 359.748 168.467 363.435 168.012C363.936 167.978 364.427 167.853 364.883 167.644C365.11 167.536 365.306 167.373 365.453 167.17C365.6 166.966 365.694 166.728 365.724 166.479C365.715 166.181 365.617 165.892 365.443 165.649C365.269 165.406 365.028 165.22 364.748 165.114Z" fill="#277FFE"/>
<path d="M367.485 170.541C367.444 170.364 367.344 170.207 367.202 170.094C367.059 169.981 366.883 169.92 366.701 169.921C366.345 169.93 366.026 170.185 365.676 170.129C365.386 170.083 365.158 169.829 364.865 169.868C364.598 169.903 364.454 170.165 364.254 170.306H363.741C363.542 170.149 363.444 169.83 363.167 169.741C362.75 169.607 362.415 170.077 361.979 170.16C361.726 170.188 361.47 170.14 361.246 170.02C361.026 169.901 360.787 169.82 360.54 169.781C360.431 169.765 360.32 169.78 360.219 169.824C360.119 169.868 360.032 169.94 359.971 170.031C359.984 169.898 359.811 169.768 359.636 169.759C359.439 169.766 359.249 169.825 359.082 169.93C358.915 170.034 358.722 170.089 358.525 170.089C358.089 170.051 357.875 169.541 357.437 169.536C356.885 169.529 356.664 170.315 356.118 170.248C355.834 170.213 355.68 169.955 355.427 169.845C355.159 169.763 354.872 169.76 354.602 169.837L353.31 170.079C352.932 170.183 352.532 170.187 352.152 170.09C351.875 169.99 351.606 169.773 351.32 169.856C351.071 169.928 350.95 170.206 350.687 170.221C350.518 170.199 350.356 170.144 350.21 170.058C350.074 170.009 349.926 170.002 349.785 170.038C349.645 170.073 349.518 170.149 349.421 170.257C349.276 170.846 349.253 171.458 349.352 172.056C349.348 172.184 349.358 172.311 349.382 172.437L350.681 177.635C350.833 178.432 351.228 179.008 352.039 179.008H364.664C365.057 179.008 365.438 178.871 365.741 178.62C366.045 178.37 366.251 178.021 366.325 177.635L367.624 172.437C367.627 172.423 367.628 172.41 367.631 172.397C367.661 171.774 367.612 171.151 367.485 170.541Z" fill="#CCCCCC"/>
<path opacity="0.2" d="M352.05 170.15L352.302 173.431C352.387 174.525 352.262 175.603 352.346 176.697C352.394 177.313 352.65 177.944 352.697 178.56C352.703 178.632 352.816 178.633 352.811 178.56L352.558 175.279L352.306 171.998L352.164 170.15C352.158 170.078 352.044 170.077 352.05 170.15V170.15Z" fill="black"/>
<path opacity="0.2" d="M354.242 170.28L354.341 173.513L354.439 176.746L354.494 178.561C354.497 178.634 354.61 178.635 354.608 178.561L354.51 175.328L354.411 172.095L354.356 170.28C354.354 170.207 354.24 170.207 354.242 170.28Z" fill="black"/>
<path opacity="0.2" d="M356.366 170.474L356.336 173.599L356.307 176.704L356.29 178.465C356.29 178.48 356.297 178.494 356.307 178.504C356.318 178.514 356.332 178.52 356.347 178.52C356.361 178.52 356.376 178.514 356.386 178.504C356.397 178.494 356.403 178.48 356.403 178.465L356.433 175.341L356.463 172.235L356.48 170.474C356.479 170.459 356.473 170.445 356.463 170.435C356.452 170.425 356.438 170.419 356.423 170.419C356.408 170.419 356.394 170.425 356.384 170.435C356.373 170.445 356.367 170.459 356.366 170.474Z" fill="black"/>
<path opacity="0.2" d="M357.971 170.379L358.033 173.542L358.095 176.686L358.13 178.466C358.131 178.481 358.137 178.495 358.147 178.505C358.158 178.515 358.172 178.521 358.187 178.521C358.202 178.521 358.216 178.515 358.226 178.505C358.237 178.495 358.243 178.481 358.244 178.466L358.181 175.303L358.12 172.159L358.085 170.379C358.084 170.364 358.078 170.35 358.067 170.34C358.057 170.329 358.043 170.324 358.028 170.324C358.013 170.324 357.999 170.329 357.988 170.34C357.978 170.35 357.971 170.364 357.971 170.379Z" fill="black"/>
<path opacity="0.2" d="M360.309 170.249L360.38 173.496L360.452 176.744L360.491 178.561C360.492 178.576 360.498 178.59 360.509 178.6C360.519 178.611 360.533 178.616 360.548 178.616C360.563 178.616 360.577 178.611 360.588 178.6C360.598 178.59 360.605 178.576 360.605 178.561L360.534 175.314L360.463 172.066L360.423 170.249C360.423 170.234 360.416 170.22 360.406 170.21C360.395 170.199 360.381 170.194 360.366 170.194C360.351 170.194 360.337 170.199 360.327 170.21C360.316 170.22 360.31 170.234 360.309 170.249Z" fill="black"/>
<path opacity="0.2" d="M362.25 170.347L362.498 173.619L362.745 176.882L362.885 178.721C362.89 178.793 363.004 178.794 362.998 178.721L362.75 175.449L362.503 172.186L362.364 170.347C362.358 170.275 362.245 170.274 362.25 170.347Z" fill="black"/>
<path opacity="0.2" d="M364.407 170.728L364.557 173.722C364.607 174.72 364.353 175.718 364.403 176.716L364.487 178.397C364.491 178.47 364.605 178.471 364.601 178.397C364.551 177.399 364.804 176.401 364.755 175.403L364.605 172.41L364.521 170.728C364.517 170.656 364.404 170.655 364.407 170.728Z" fill="black"/>
<path d="M357.821 162.526C358.062 162.526 358.257 162.39 358.257 162.223C358.257 162.055 358.062 161.92 357.821 161.92C357.581 161.92 357.385 162.055 357.385 162.223C357.385 162.39 357.581 162.526 357.821 162.526Z" fill="#D9E2FF"/>
<path d="M360.587 163.208C360.828 163.208 361.023 163.072 361.023 162.905C361.023 162.737 360.828 162.602 360.587 162.602C360.346 162.602 360.151 162.737 360.151 162.905C360.151 163.072 360.346 163.208 360.587 163.208Z" fill="#277FFE"/>
<path d="M356.722 164.686C356.963 164.686 357.158 164.55 357.158 164.383C357.158 164.215 356.963 164.079 356.722 164.079C356.482 164.079 356.287 164.215 356.287 164.383C356.287 164.55 356.482 164.686 356.722 164.686Z" fill="#FF6584"/>
<path d="M360.326 165.085C360.478 165.085 360.601 164.999 360.601 164.894C360.601 164.788 360.478 164.702 360.326 164.702C360.174 164.702 360.05 164.788 360.05 164.894C360.05 164.999 360.174 165.085 360.326 165.085Z" fill="#D9E2FF"/>
<path d="M362.074 165.516C362.226 165.516 362.349 165.43 362.349 165.325C362.349 165.219 362.226 165.133 362.074 165.133C361.922 165.133 361.798 165.219 361.798 165.325C361.798 165.43 361.922 165.516 362.074 165.516Z" fill="#277FFE"/>
<path d="M359.631 166.45C359.783 166.45 359.906 166.364 359.906 166.259C359.906 166.153 359.783 166.067 359.631 166.067C359.479 166.067 359.356 166.153 359.356 166.259C359.356 166.364 359.479 166.45 359.631 166.45Z" fill="#FF6584"/>
<path d="M362.902 166.146C363.054 166.146 363.177 166.06 363.177 165.955C363.177 165.849 363.054 165.763 362.902 165.763C362.75 165.763 362.627 165.849 362.627 165.955C362.627 166.06 362.75 166.146 362.902 166.146Z" fill="#D9E2FF"/>
<path d="M364.65 166.577C364.802 166.577 364.926 166.491 364.926 166.386C364.926 166.28 364.802 166.194 364.65 166.194C364.498 166.194 364.375 166.28 364.375 166.386C364.375 166.491 364.498 166.577 364.65 166.577Z" fill="#277FFE"/>
<path d="M362.207 167.511C362.36 167.511 362.483 167.425 362.483 167.319C362.483 167.214 362.36 167.128 362.207 167.128C362.055 167.128 361.932 167.214 361.932 167.319C361.932 167.425 362.055 167.511 362.207 167.511Z" fill="#FF6584"/>
<path d="M355.803 165.136C355.824 164.985 355.756 164.851 355.651 164.837C355.546 164.822 355.445 164.933 355.424 165.083C355.403 165.234 355.471 165.368 355.576 165.382C355.681 165.397 355.783 165.286 355.803 165.136Z" fill="#D9E2FF"/>
<path d="M355.136 166.808C355.157 166.657 355.089 166.523 354.984 166.509C354.879 166.494 354.777 166.605 354.757 166.756C354.736 166.906 354.804 167.04 354.909 167.055C355.014 167.069 355.115 166.959 355.136 166.808Z" fill="#277FFE"/>
<path d="M354.546 164.261C354.567 164.111 354.499 163.977 354.394 163.962C354.289 163.948 354.187 164.058 354.166 164.209C354.146 164.36 354.214 164.494 354.319 164.508C354.423 164.522 354.525 164.412 354.546 164.261Z" fill="#FF6584"/>
<path d="M358.797 164.226C358.818 164.076 358.749 163.942 358.645 163.927C358.54 163.913 358.438 164.023 358.417 164.174C358.396 164.325 358.465 164.458 358.569 164.473C358.674 164.487 358.776 164.377 358.797 164.226Z" fill="#D9E2FF"/>
<path d="M358.131 165.899C358.152 165.748 358.084 165.615 357.979 165.6C357.874 165.586 357.772 165.696 357.751 165.847C357.731 165.998 357.799 166.131 357.904 166.146C358.008 166.16 358.11 166.05 358.131 165.899Z" fill="#277FFE"/>
<path d="M357.539 163.352C357.56 163.201 357.492 163.067 357.387 163.053C357.282 163.039 357.18 163.149 357.16 163.3C357.139 163.45 357.207 163.584 357.312 163.599C357.417 163.613 357.518 163.503 357.539 163.352Z" fill="#FF6584"/>
<path d="M359.609 162.375C359.63 162.225 359.562 162.091 359.457 162.076C359.352 162.062 359.25 162.172 359.229 162.323C359.209 162.474 359.277 162.608 359.382 162.622C359.486 162.636 359.588 162.526 359.609 162.375Z" fill="#277FFE"/>
<path d="M359.017 159.828C359.038 159.678 358.97 159.544 358.865 159.529C358.76 159.515 358.658 159.625 358.638 159.776C358.617 159.927 358.685 160.06 358.79 160.075C358.895 160.089 358.996 159.979 359.017 159.828Z" fill="#FF6584"/>
<path d="M440 272.623C439.591 273.835 0.441654 273.056 0 271.846C0.408813 270.631 439.558 271.41 440 272.623Z" fill="#CCCCCC"/>
<path d="M170.879 209.609C168.118 209.609 165.419 208.79 163.124 207.256C160.829 205.723 159.04 203.543 157.983 200.992C156.927 198.442 156.651 195.636 157.189 192.928C157.728 190.22 159.057 187.733 161.009 185.781C162.961 183.829 165.448 182.5 168.156 181.961C170.863 181.423 173.67 181.699 176.22 182.756C178.771 183.812 180.95 185.601 182.484 187.896C184.018 190.192 184.836 192.89 184.836 195.651C184.836 199.353 183.366 202.903 180.748 205.521C178.131 208.138 174.58 209.609 170.879 209.609Z" fill="#D9E2FF"/>
<path d="M176.386 194.274H172.255V190.144C172.255 189.778 172.11 189.428 171.852 189.17C171.594 188.912 171.244 188.767 170.879 188.767C170.513 188.767 170.163 188.912 169.905 189.17C169.647 189.428 169.502 189.778 169.502 190.144V194.274H165.371C165.007 194.275 164.657 194.42 164.399 194.678C164.142 194.937 163.997 195.286 163.997 195.651C163.997 196.016 164.142 196.366 164.399 196.624C164.657 196.882 165.007 197.027 165.371 197.028H169.502V201.158C169.502 201.523 169.648 201.873 169.906 202.13C170.164 202.388 170.514 202.533 170.879 202.533C171.243 202.533 171.593 202.388 171.851 202.13C172.109 201.873 172.255 201.523 172.255 201.158V197.028H176.386C176.567 197.028 176.746 196.993 176.914 196.924C177.081 196.855 177.233 196.753 177.361 196.626C177.489 196.498 177.591 196.346 177.66 196.179C177.73 196.011 177.766 195.832 177.766 195.651C177.766 195.47 177.73 195.291 177.66 195.124C177.591 194.956 177.489 194.804 177.361 194.677C177.233 194.549 177.081 194.447 176.914 194.378C176.746 194.309 176.567 194.274 176.386 194.274Z" fill="white"/>
<path d="M211.715 209.609C208.954 209.609 206.256 208.79 203.96 207.256C201.665 205.723 199.876 203.543 198.82 200.992C197.763 198.442 197.487 195.636 198.025 192.928C198.564 190.22 199.893 187.733 201.845 185.781C203.797 183.829 206.284 182.5 208.992 181.961C211.699 181.423 214.506 181.699 217.056 182.756C219.607 183.812 221.787 185.601 223.32 187.896C224.854 190.192 225.673 192.89 225.673 195.651C225.673 199.353 224.202 202.903 221.584 205.521C218.967 208.138 215.417 209.609 211.715 209.609Z" fill="#D9E2FF"/>
<path d="M217.222 194.274H206.207C205.842 194.275 205.493 194.42 205.235 194.678C204.978 194.937 204.833 195.286 204.833 195.651C204.833 196.016 204.978 196.366 205.235 196.624C205.493 196.882 205.842 197.027 206.207 197.028H217.222C217.403 197.028 217.582 196.993 217.75 196.924C217.917 196.855 218.069 196.753 218.197 196.626C218.325 196.498 218.427 196.346 218.496 196.179C218.566 196.011 218.602 195.832 218.602 195.651C218.602 195.47 218.566 195.291 218.496 195.124C218.427 194.956 218.325 194.804 218.197 194.677C218.069 194.549 217.917 194.447 217.75 194.378C217.582 194.309 217.403 194.274 217.222 194.274Z" fill="white"/>
<path d="M252.551 209.609C249.79 209.609 247.092 208.79 244.797 207.256C242.501 205.723 240.712 203.543 239.656 200.992C238.599 198.442 238.323 195.636 238.861 192.928C239.4 190.22 240.729 187.733 242.681 185.781C244.633 183.829 247.12 182.5 249.828 181.961C252.536 181.423 255.342 181.699 257.892 182.756C260.443 183.812 262.623 185.601 264.157 187.896C265.69 190.192 266.509 192.89 266.509 195.651C266.509 199.353 265.038 202.903 262.421 205.521C259.803 208.138 256.253 209.609 252.551 209.609Z" fill="#277FFE"/>
<path d="M260.403 194.988L256.446 189.212C256.27 188.956 256 188.779 255.694 188.722C255.388 188.665 255.072 188.732 254.815 188.908C254.558 189.084 254.382 189.354 254.325 189.66C254.267 189.966 254.334 190.282 254.51 190.539L257.069 194.274H247.043C246.862 194.274 246.683 194.309 246.516 194.378C246.348 194.447 246.196 194.549 246.068 194.677C245.94 194.804 245.838 194.956 245.769 195.124C245.699 195.291 245.664 195.47 245.664 195.651C245.664 195.832 245.699 196.011 245.769 196.179C245.838 196.346 245.94 196.498 246.068 196.626C246.196 196.753 246.348 196.855 246.516 196.924C246.683 196.993 246.862 197.028 247.043 197.028H257.195L254.51 200.947C254.335 201.204 254.269 201.52 254.326 201.825C254.383 202.13 254.56 202.401 254.816 202.576C255.073 202.752 255.388 202.819 255.694 202.762C255.999 202.705 256.27 202.53 256.446 202.274L260.403 196.498C260.532 196.267 260.6 196.007 260.6 195.743C260.6 195.479 260.532 195.219 260.403 194.988Z" fill="white"/>
<path d="M151.168 44.5058H132.804C131.425 44.5058 130.306 45.624 130.306 47.0033V47.0033C130.306 48.3827 131.425 49.5009 132.804 49.5009H151.168C152.548 49.5009 153.666 48.3827 153.666 47.0033C153.666 45.624 152.548 44.5058 151.168 44.5058Z" fill="#277FFE"/>
<path d="M163.032 54.496H120.94C119.561 54.496 118.443 55.6142 118.443 56.9936V56.9936C118.443 58.373 119.561 59.4912 120.94 59.4912H163.032C164.411 59.4912 165.529 58.373 165.529 56.9936C165.529 55.6142 164.411 54.496 163.032 54.496Z" fill="#D9E2FF"/>
<path d="M163.032 64.4863H120.94C119.561 64.4863 118.443 65.6045 118.443 66.9839V66.9839C118.443 68.3633 119.561 69.4815 120.94 69.4815H163.032C164.411 69.4815 165.529 68.3633 165.529 66.9839C165.529 65.6045 164.411 64.4863 163.032 64.4863Z" fill="#D9E2FF"/>
<path d="M160.436 118.115H159.369V78.0812H83.2649V77.0142H160.436V118.115Z" fill="#D9E2FF"/>
<path d="M71.3737 89.2647C79.5585 89.2647 86.1936 82.6296 86.1936 74.4448C86.1936 66.2599 79.5585 59.6248 71.3737 59.6248C63.1888 59.6248 56.5537 66.2599 56.5537 74.4448C56.5537 82.6296 63.1888 89.2647 71.3737 89.2647Z" fill="#D9E2FF"/>
<path d="M69.352 82.1579C69.0961 82.1579 68.8437 82.0982 68.6148 81.9838C68.3859 81.8693 68.1868 81.7031 68.0333 81.4983L63.9902 76.1074C63.86 75.9342 63.7653 75.7371 63.7113 75.5273C63.6574 75.3175 63.6453 75.0991 63.6759 74.8846C63.7064 74.6701 63.7789 74.4638 63.8892 74.2773C63.9996 74.0909 64.1455 73.928 64.3189 73.798C64.4922 73.6681 64.6894 73.5735 64.8993 73.5198C65.1092 73.4661 65.3276 73.4543 65.542 73.4851C65.7565 73.5159 65.9627 73.5886 66.149 73.6991C66.3354 73.8097 66.4981 73.9558 66.6278 74.1293L69.273 77.6559L76.0667 67.4655C76.1867 67.2851 76.3411 67.1302 76.521 67.0095C76.7009 66.8889 76.9028 66.8049 77.1152 66.7623C77.3275 66.7197 77.5462 66.7194 77.7588 66.7614C77.9713 66.8034 78.1734 66.8868 78.3536 67.007C78.5339 67.1272 78.6887 67.2817 78.8092 67.4617C78.9297 67.6417 79.0135 67.8437 79.0559 68.0561C79.0983 68.2685 79.0984 68.4872 79.0562 68.6997C79.014 68.9122 78.9304 69.1142 78.81 69.2944L70.7238 81.4237C70.5775 81.6431 70.3808 81.8242 70.1501 81.9518C69.9194 82.0794 69.6614 82.1499 69.3979 82.1573C69.3826 82.1576 69.3673 82.1579 69.352 82.1579Z" fill="white"/>
<path d="M260.961 116.004H259.894V74.9038H337.065V75.9707H260.961V116.004Z" fill="#D9E2FF"/>
<path d="M348.899 87.1543C357.084 87.1543 363.719 80.5192 363.719 72.3343C363.719 64.1495 357.084 57.5144 348.899 57.5144C340.714 57.5144 334.079 64.1495 334.079 72.3343C334.079 80.5192 340.714 87.1543 348.899 87.1543Z" fill="#D9E2FF"/>
<path d="M346.877 80.0474C346.621 80.0474 346.369 79.9878 346.14 79.8733C345.911 79.7588 345.712 79.5926 345.558 79.3879L341.515 73.9969C341.385 73.8238 341.29 73.6267 341.236 73.4168C341.183 73.207 341.17 72.9886 341.201 72.7742C341.232 72.5597 341.304 72.3533 341.414 72.1669C341.525 71.9804 341.671 71.8176 341.844 71.6876C342.017 71.5576 342.215 71.4631 342.424 71.4094C342.634 71.3557 342.853 71.3439 343.067 71.3746C343.282 71.4054 343.488 71.4781 343.674 71.5887C343.86 71.6992 344.023 71.8454 344.153 72.0189L346.798 75.5455L353.592 65.355C353.712 65.1747 353.866 65.0198 354.046 64.8991C354.226 64.7784 354.428 64.6944 354.64 64.6519C354.853 64.6093 355.071 64.609 355.284 64.651C355.496 64.6929 355.699 64.7764 355.879 64.8966C356.059 65.0167 356.214 65.1712 356.334 65.3512C356.455 65.5312 356.539 65.7332 356.581 65.9457C356.623 66.1581 356.624 66.3768 356.581 66.5893C356.539 66.8017 356.455 67.0038 356.335 67.1839L348.249 79.3133C348.103 79.5326 347.906 79.7137 347.675 79.8414C347.445 79.969 347.187 80.0395 346.923 80.0469C346.908 80.0471 346.892 80.0474 346.877 80.0474Z" fill="white"/>
<path d="M164.677 122.845H153.084C152.772 122.845 151.056 121.937 151.056 120.817V114.377C151 109.506 166.947 109.187 167.008 114.377V120.817C167.008 121.937 165.797 122.845 164.677 122.845Z" fill="#D9E2FF"/>
<path d="M165.277 110.012C164.714 109.811 164.117 109.725 163.521 109.76C163.68 109.708 163.827 109.622 163.951 109.508C163.842 109.504 163.733 109.489 163.627 109.465C163.51 109.443 163.4 109.393 163.305 109.321C163.259 109.284 163.222 109.236 163.198 109.181C163.175 109.127 163.165 109.067 163.171 109.008C163.192 108.861 163.33 108.739 163.316 108.591C163.3 108.421 163.104 108.339 162.999 108.204C162.935 108.103 162.906 107.983 162.915 107.864C162.925 107.744 162.974 107.631 163.054 107.542C163.154 107.426 163.276 107.331 163.413 107.263C163.181 107.204 162.938 107.207 162.708 107.273C162.829 107.18 162.919 107.054 162.969 106.91C163.018 106.766 163.024 106.61 162.987 106.463C162.923 106.278 162.814 106.112 162.671 105.979C162.527 105.846 162.353 105.75 162.164 105.701C161.785 105.605 161.393 105.574 161.004 105.607C161.335 105.505 161.285 104.987 161.032 104.751C160.779 104.514 160.417 104.416 160.179 104.165C159.94 103.914 159.959 103.378 160.303 103.337L160.261 103.214C160.083 103.148 159.894 103.121 159.705 103.134C159.516 103.147 159.332 103.201 159.165 103.292C158.999 103.383 158.854 103.508 158.74 103.66C158.626 103.811 158.546 103.985 158.506 104.17C158.443 104.563 158.56 104.997 158.363 105.342C158.113 105.782 157.503 105.832 156.999 105.783C156.504 105.656 155.979 105.727 155.536 105.982C155.398 106.097 155.3 106.252 155.254 106.426C155.208 106.599 155.218 106.782 155.281 106.95C155.345 107.118 155.459 107.262 155.608 107.362C155.757 107.462 155.933 107.513 156.112 107.508C155.781 107.51 155.45 107.554 155.129 107.638L155.439 107.758C155.507 107.779 155.571 107.815 155.625 107.862C155.651 107.887 155.67 107.919 155.677 107.954C155.684 107.989 155.681 108.026 155.666 108.059C155.617 108.148 155.489 108.145 155.388 108.13L154.716 108.029C154.752 108.041 154.785 108.061 154.812 108.087C154.84 108.114 154.861 108.146 154.874 108.182C154.888 108.217 154.893 108.255 154.889 108.293C154.886 108.331 154.874 108.368 154.855 108.401C154.835 108.433 154.809 108.462 154.777 108.483C154.746 108.504 154.71 108.518 154.672 108.523C154.635 108.529 154.596 108.526 154.56 108.515C154.523 108.503 154.49 108.484 154.462 108.458C154.531 108.539 154.587 108.63 154.626 108.729C154.646 108.778 154.653 108.831 154.648 108.884C154.642 108.937 154.624 108.988 154.595 109.032C154.529 109.093 154.444 109.132 154.355 109.143C154.265 109.154 154.174 109.137 154.095 109.093C154.04 109.072 153.985 109.048 153.93 109.025C153.931 109.045 153.932 109.064 153.934 109.084C153.953 109.211 153.997 109.334 154.066 109.443C154.134 109.553 154.224 109.647 154.331 109.72C154.026 109.755 153.746 109.903 153.544 110.134C153.374 110.346 153.277 110.607 153.267 110.878C153.258 111.15 153.337 111.417 153.492 111.639C153.153 111.489 152.782 111.428 152.412 111.46C152.229 111.483 152.06 111.572 151.938 111.711C151.816 111.85 151.749 112.028 151.751 112.213C151.812 112.682 152.392 112.853 152.861 112.911C156.548 113.365 160.277 113.365 163.964 112.91C164.465 112.876 164.955 112.751 165.411 112.542C165.639 112.434 165.835 112.271 165.982 112.067C166.129 111.864 166.222 111.626 166.253 111.377C166.243 111.079 166.145 110.79 165.972 110.547C165.798 110.304 165.556 110.118 165.277 110.012Z" fill="#277FFE"/>
<path d="M168.014 115.439C167.973 115.262 167.873 115.105 167.731 114.992C167.588 114.879 167.412 114.818 167.23 114.819C166.874 114.828 166.555 115.083 166.205 115.027C165.915 114.981 165.687 114.727 165.394 114.766C165.127 114.801 164.983 115.063 164.783 115.204H164.27C164.071 115.047 163.973 114.728 163.696 114.639C163.279 114.505 162.944 114.975 162.508 115.058C162.255 115.086 162 115.038 161.775 114.918C161.555 114.799 161.316 114.718 161.069 114.679C160.96 114.663 160.849 114.678 160.748 114.722C160.648 114.766 160.561 114.838 160.5 114.929C160.513 114.796 160.34 114.666 160.165 114.657C159.969 114.664 159.778 114.723 159.611 114.828C159.444 114.932 159.251 114.987 159.055 114.987C158.618 114.949 158.404 114.439 157.966 114.434C157.414 114.427 157.193 115.213 156.647 115.146C156.363 115.111 156.209 114.853 155.956 114.743C155.688 114.661 155.401 114.658 155.131 114.735L153.839 114.977C153.461 115.081 153.061 115.085 152.681 114.988C152.404 114.888 152.135 114.671 151.849 114.754C151.6 114.826 151.479 115.104 151.216 115.119C151.047 115.097 150.885 115.042 150.739 114.956C150.603 114.907 150.455 114.9 150.314 114.936C150.174 114.971 150.047 115.047 149.95 115.155C149.805 115.744 149.782 116.356 149.881 116.954C149.877 117.082 149.887 117.209 149.911 117.335L151.21 122.533C151.363 123.33 151.757 123.906 152.568 123.906H165.193C165.586 123.906 165.967 123.769 166.271 123.518C166.574 123.268 166.78 122.919 166.854 122.533L168.153 117.335C168.156 117.321 168.157 117.308 168.16 117.294C168.19 116.672 168.141 116.049 168.014 115.439Z" fill="#CCCCCC"/>
<path opacity="0.2" d="M152.578 115.048L152.831 118.329C152.915 119.423 152.79 120.501 152.874 121.595C152.922 122.211 153.178 122.842 153.225 123.458C153.231 123.53 153.345 123.531 153.339 123.458L153.087 120.177L152.834 116.896L152.692 115.048C152.686 114.976 152.573 114.975 152.578 115.048L152.578 115.048Z" fill="black"/>
<path opacity="0.2" d="M154.771 115.178L154.869 118.411L154.968 121.644L155.023 123.459C155.025 123.532 155.139 123.533 155.136 123.459L155.038 120.226L154.94 116.993L154.884 115.178C154.882 115.105 154.769 115.105 154.771 115.178Z" fill="black"/>
<path opacity="0.2" d="M156.895 115.372L156.865 118.497L156.835 121.602L156.818 123.363C156.819 123.378 156.825 123.392 156.835 123.402C156.846 123.412 156.86 123.418 156.875 123.418C156.89 123.418 156.904 123.412 156.914 123.402C156.925 123.392 156.931 123.378 156.932 123.363L156.962 120.239L156.991 117.133L157.008 115.372C157.008 115.357 157.002 115.343 156.991 115.333C156.98 115.323 156.966 115.317 156.951 115.317C156.937 115.317 156.923 115.323 156.912 115.333C156.901 115.343 156.895 115.357 156.895 115.372Z" fill="black"/>
<path opacity="0.2" d="M158.499 115.276L158.561 118.44L158.623 121.584L158.658 123.364C158.659 123.379 158.665 123.393 158.675 123.403C158.686 123.413 158.7 123.419 158.715 123.419C158.73 123.419 158.744 123.413 158.754 123.403C158.765 123.393 158.771 123.379 158.772 123.364L158.71 120.201L158.648 117.057L158.613 115.276C158.612 115.262 158.606 115.248 158.595 115.237C158.585 115.227 158.571 115.222 158.556 115.222C158.541 115.222 158.527 115.227 158.516 115.237C158.506 115.248 158.5 115.262 158.499 115.276Z" fill="black"/>
<path opacity="0.2" d="M160.838 115.147L160.909 118.394L160.98 121.641L161.02 123.459C161.02 123.474 161.027 123.488 161.037 123.498C161.048 123.509 161.062 123.514 161.077 123.514C161.092 123.514 161.106 123.509 161.116 123.498C161.127 123.488 161.133 123.474 161.134 123.459L161.062 120.212L160.991 116.964L160.952 115.147C160.951 115.132 160.945 115.118 160.934 115.108C160.924 115.097 160.909 115.092 160.895 115.092C160.88 115.092 160.866 115.097 160.855 115.108C160.845 115.118 160.838 115.132 160.838 115.147Z" fill="black"/>
<path opacity="0.2" d="M162.779 115.245L163.027 118.517L163.274 121.78L163.413 123.619C163.419 123.691 163.533 123.692 163.527 123.619L163.279 120.346L163.032 117.084L162.893 115.245C162.887 115.173 162.773 115.172 162.779 115.245Z" fill="black"/>
<path opacity="0.2" d="M164.936 115.626L165.086 118.62C165.136 119.618 164.882 120.616 164.932 121.614L165.016 123.295C165.02 123.368 165.133 123.369 165.13 123.295C165.08 122.297 165.333 121.299 165.283 120.301L165.134 117.307L165.05 115.626C165.046 115.554 164.933 115.553 164.936 115.626Z" fill="black"/>
<path d="M158.35 107.424C158.59 107.424 158.785 107.288 158.785 107.121C158.785 106.953 158.59 106.818 158.35 106.818C158.109 106.818 157.914 106.953 157.914 107.121C157.914 107.288 158.109 107.424 158.35 107.424Z" fill="#D9E2FF"/>
<path d="M161.115 108.106C161.356 108.106 161.551 107.97 161.551 107.803C161.551 107.635 161.356 107.5 161.115 107.5C160.875 107.5 160.68 107.635 160.68 107.803C160.68 107.97 160.875 108.106 161.115 108.106Z" fill="#277FFE"/>
<path d="M157.251 109.584C157.492 109.584 157.687 109.448 157.687 109.28C157.687 109.113 157.492 108.977 157.251 108.977C157.01 108.977 156.815 109.113 156.815 109.28C156.815 109.448 157.01 109.584 157.251 109.584Z" fill="#FF6584"/>
<path d="M160.854 109.983C161.006 109.983 161.129 109.897 161.129 109.792C161.129 109.686 161.006 109.6 160.854 109.6C160.702 109.6 160.579 109.686 160.579 109.792C160.579 109.897 160.702 109.983 160.854 109.983Z" fill="#D9E2FF"/>
<path d="M162.602 110.414C162.754 110.414 162.877 110.328 162.877 110.223C162.877 110.117 162.754 110.031 162.602 110.031C162.45 110.031 162.327 110.117 162.327 110.223C162.327 110.328 162.45 110.414 162.602 110.414Z" fill="#277FFE"/>
<path d="M160.16 111.348C160.312 111.348 160.435 111.262 160.435 111.157C160.435 111.051 160.312 110.965 160.16 110.965C160.008 110.965 159.884 111.051 159.884 111.157C159.884 111.262 160.008 111.348 160.16 111.348Z" fill="#FF6584"/>
<path d="M163.431 111.044C163.583 111.044 163.706 110.958 163.706 110.852C163.706 110.747 163.583 110.661 163.431 110.661C163.279 110.661 163.155 110.747 163.155 110.852C163.155 110.958 163.279 111.044 163.431 111.044Z" fill="#D9E2FF"/>
<path d="M165.178 111.475C165.331 111.475 165.454 111.389 165.454 111.284C165.454 111.178 165.331 111.092 165.178 111.092C165.026 111.092 164.903 111.178 164.903 111.284C164.903 111.389 165.026 111.475 165.178 111.475Z" fill="#277FFE"/>
<path d="M162.736 112.409C162.888 112.409 163.011 112.323 163.011 112.217C163.011 112.112 162.888 112.026 162.736 112.026C162.584 112.026 162.461 112.112 162.461 112.217C162.461 112.323 162.584 112.409 162.736 112.409Z" fill="#FF6584"/>
<path d="M156.332 110.034C156.353 109.883 156.285 109.749 156.18 109.735C156.075 109.72 155.973 109.831 155.953 109.981C155.932 110.132 156 110.266 156.105 110.28C156.21 110.295 156.311 110.184 156.332 110.034Z" fill="#D9E2FF"/>
<path d="M155.667 111.706C155.687 111.556 155.619 111.422 155.514 111.408C155.41 111.393 155.308 111.503 155.287 111.654C155.266 111.805 155.334 111.939 155.439 111.953C155.544 111.968 155.646 111.857 155.667 111.706Z" fill="#277FFE"/>
<path d="M155.075 109.159C155.095 109.009 155.027 108.875 154.922 108.86C154.818 108.846 154.716 108.956 154.695 109.107C154.674 109.258 154.742 109.392 154.847 109.406C154.952 109.42 155.054 109.31 155.075 109.159Z" fill="#FF6584"/>
<path d="M159.325 109.124C159.346 108.974 159.278 108.84 159.173 108.825C159.068 108.811 158.967 108.921 158.946 109.072C158.925 109.223 158.993 109.356 159.098 109.371C159.203 109.385 159.305 109.275 159.325 109.124Z" fill="#D9E2FF"/>
<path d="M158.66 110.797C158.681 110.646 158.612 110.513 158.508 110.498C158.403 110.484 158.301 110.594 158.28 110.745C158.26 110.895 158.328 111.029 158.432 111.044C158.537 111.058 158.639 110.948 158.66 110.797Z" fill="#277FFE"/>
<path d="M158.068 108.25C158.089 108.099 158.021 107.965 157.916 107.951C157.811 107.937 157.709 108.047 157.688 108.198C157.668 108.348 157.736 108.482 157.841 108.497C157.945 108.511 158.047 108.401 158.068 108.25Z" fill="#FF6584"/>
<path d="M160.136 107.273C160.157 107.122 160.089 106.988 159.984 106.974C159.879 106.959 159.777 107.07 159.757 107.22C159.736 107.371 159.804 107.505 159.909 107.519C160.014 107.534 160.115 107.423 160.136 107.273Z" fill="#277FFE"/>
<path d="M159.546 104.726C159.566 104.575 159.498 104.442 159.393 104.427C159.289 104.413 159.187 104.523 159.166 104.674C159.145 104.825 159.213 104.958 159.318 104.973C159.423 104.987 159.525 104.877 159.546 104.726Z" fill="#FF6584"/>
<path d="M266.792 120.596H255.198C254.887 120.596 253.171 119.688 253.171 118.568V112.128C253.115 107.257 269.062 106.938 269.122 112.128V118.568C269.122 119.688 267.911 120.596 266.792 120.596Z" fill="#D9E2FF"/>
<path d="M267.391 107.762C266.829 107.561 266.232 107.476 265.636 107.511C265.795 107.458 265.942 107.372 266.066 107.259C265.957 107.254 265.848 107.24 265.742 107.215C265.625 107.193 265.515 107.144 265.42 107.071C265.373 107.034 265.337 106.987 265.313 106.932C265.29 106.877 265.28 106.818 265.285 106.758C265.307 106.611 265.445 106.49 265.43 106.342C265.414 106.172 265.218 106.089 265.113 105.954C265.049 105.853 265.02 105.734 265.03 105.614C265.04 105.495 265.089 105.382 265.169 105.292C265.268 105.176 265.39 105.081 265.527 105.013C265.296 104.954 265.053 104.958 264.823 105.024C264.944 104.93 265.034 104.804 265.084 104.66C265.133 104.516 265.139 104.361 265.101 104.213C265.037 104.028 264.929 103.862 264.785 103.729C264.642 103.596 264.468 103.501 264.279 103.451C263.9 103.356 263.508 103.324 263.119 103.357C263.449 103.256 263.4 102.737 263.147 102.501C262.894 102.265 262.532 102.166 262.293 101.915C262.055 101.664 262.074 101.129 262.418 101.087L262.376 100.965C262.198 100.898 262.008 100.871 261.819 100.884C261.63 100.898 261.446 100.952 261.28 101.042C261.114 101.133 260.969 101.258 260.855 101.41C260.741 101.561 260.661 101.736 260.621 101.921C260.558 102.313 260.675 102.747 260.478 103.092C260.227 103.532 259.618 103.582 259.114 103.533C258.619 103.406 258.094 103.478 257.651 103.733C257.513 103.848 257.415 104.003 257.369 104.176C257.323 104.349 257.333 104.533 257.396 104.701C257.459 104.869 257.574 105.012 257.722 105.112C257.871 105.212 258.048 105.263 258.227 105.258C257.895 105.261 257.565 105.304 257.244 105.388L257.553 105.508C257.622 105.529 257.686 105.565 257.74 105.613C257.766 105.637 257.784 105.669 257.792 105.704C257.799 105.739 257.795 105.776 257.781 105.809C257.732 105.899 257.604 105.896 257.503 105.88L256.831 105.779C256.867 105.791 256.9 105.811 256.927 105.838C256.955 105.864 256.976 105.896 256.989 105.932C257.002 105.968 257.007 106.006 257.004 106.044C257.001 106.082 256.989 106.118 256.97 106.151C256.95 106.184 256.924 106.212 256.892 106.233C256.861 106.254 256.825 106.268 256.787 106.274C256.749 106.279 256.711 106.276 256.675 106.265C256.638 106.254 256.605 106.235 256.577 106.209C256.646 106.289 256.701 106.381 256.741 106.479C256.761 106.528 256.768 106.582 256.763 106.635C256.757 106.687 256.739 106.738 256.71 106.783C256.643 106.844 256.559 106.882 256.469 106.893C256.38 106.904 256.289 106.887 256.209 106.844C256.155 106.823 256.1 106.798 256.044 106.776C256.045 106.795 256.047 106.815 256.049 106.834C256.067 106.962 256.112 107.084 256.18 107.194C256.249 107.303 256.339 107.397 256.446 107.47C256.141 107.506 255.86 107.653 255.659 107.885C255.488 108.096 255.391 108.357 255.382 108.628C255.373 108.9 255.452 109.167 255.607 109.39C255.268 109.24 254.896 109.178 254.527 109.211C254.344 109.233 254.175 109.323 254.053 109.461C253.931 109.6 253.864 109.779 253.865 109.964C253.926 110.432 254.507 110.603 254.975 110.662C258.663 111.115 262.392 111.115 266.079 110.66C266.579 110.626 267.07 110.502 267.526 110.292C267.753 110.184 267.949 110.021 268.097 109.818C268.244 109.614 268.337 109.377 268.368 109.128C268.358 108.829 268.26 108.54 268.086 108.297C267.913 108.054 267.671 107.868 267.391 107.762Z" fill="#277FFE"/>
<path d="M270.128 113.19C270.088 113.013 269.988 112.855 269.845 112.742C269.703 112.629 269.526 112.568 269.345 112.569C268.988 112.579 268.67 112.833 268.32 112.777C268.029 112.731 267.801 112.478 267.509 112.516C267.241 112.552 267.097 112.813 266.897 112.954H266.385C266.185 112.797 266.087 112.479 265.81 112.389C265.393 112.255 265.059 112.725 264.622 112.809C264.369 112.837 264.114 112.788 263.889 112.669C263.669 112.549 263.431 112.468 263.184 112.43C263.075 112.413 262.964 112.428 262.863 112.472C262.762 112.517 262.676 112.588 262.614 112.68C262.628 112.546 262.455 112.416 262.279 112.408C262.083 112.415 261.892 112.473 261.726 112.578C261.559 112.682 261.366 112.738 261.169 112.737C260.733 112.699 260.519 112.19 260.08 112.184C259.528 112.177 259.307 112.964 258.761 112.897C258.477 112.862 258.324 112.604 258.071 112.494C257.802 112.411 257.515 112.408 257.245 112.486L255.954 112.727C255.575 112.832 255.176 112.836 254.795 112.739C254.518 112.638 254.249 112.421 253.964 112.504C253.715 112.576 253.594 112.855 253.33 112.869C253.162 112.848 253 112.792 252.854 112.706C252.717 112.658 252.569 112.651 252.429 112.686C252.288 112.722 252.161 112.798 252.064 112.905C251.92 113.494 251.896 114.106 251.995 114.705C251.991 114.832 252.002 114.96 252.025 115.085L253.324 120.283C253.477 121.08 253.871 121.657 254.683 121.657H267.307C267.701 121.657 268.082 121.519 268.385 121.269C268.688 121.018 268.895 120.669 268.969 120.283L270.268 115.085C270.27 115.072 270.272 115.058 270.274 115.045C270.305 114.423 270.256 113.799 270.128 113.19Z" fill="#CCCCCC"/>
<path opacity="0.2" d="M254.693 112.799L254.946 116.079C255.03 117.173 254.905 118.252 254.989 119.345C255.037 119.961 255.293 120.592 255.34 121.208C255.346 121.281 255.46 121.281 255.454 121.208L255.202 117.927L254.949 114.646L254.807 112.799C254.801 112.726 254.688 112.726 254.693 112.799L254.693 112.799Z" fill="black"/>
<path opacity="0.2" d="M256.886 112.928L256.984 116.162L257.083 119.395L257.138 121.21C257.14 121.283 257.254 121.283 257.251 121.21L257.153 117.977L257.055 114.744L256.999 112.928C256.997 112.855 256.884 112.855 256.886 112.928Z" fill="black"/>
<path opacity="0.2" d="M259.01 113.122L258.98 116.247L258.95 119.352L258.933 121.114C258.934 121.128 258.94 121.142 258.95 121.153C258.961 121.163 258.975 121.168 258.99 121.168C259.005 121.168 259.019 121.163 259.029 121.153C259.04 121.142 259.046 121.128 259.047 121.114L259.077 117.989L259.106 114.884L259.123 113.122C259.123 113.108 259.117 113.094 259.106 113.084C259.095 113.073 259.081 113.068 259.066 113.068C259.052 113.068 259.038 113.073 259.027 113.084C259.016 113.094 259.01 113.108 259.01 113.122Z" fill="black"/>
<path opacity="0.2" d="M260.614 113.027L260.676 116.19L260.738 119.334L260.773 121.114C260.774 121.129 260.78 121.143 260.791 121.153C260.801 121.164 260.815 121.169 260.83 121.169C260.845 121.169 260.859 121.164 260.87 121.153C260.88 121.143 260.886 121.129 260.887 121.114L260.825 117.951L260.763 114.807L260.728 113.027C260.727 113.012 260.721 112.998 260.711 112.988C260.7 112.978 260.686 112.972 260.671 112.972C260.656 112.972 260.642 112.978 260.632 112.988C260.621 112.998 260.615 113.012 260.614 113.027Z" fill="black"/>
<path opacity="0.2" d="M262.953 112.897L263.024 116.144L263.095 119.392L263.135 121.21C263.135 121.224 263.141 121.238 263.152 121.249C263.163 121.259 263.177 121.265 263.192 121.265C263.206 121.265 263.22 121.259 263.231 121.249C263.242 121.238 263.248 121.224 263.248 121.21L263.177 117.962L263.106 114.715L263.066 112.897C263.066 112.882 263.06 112.868 263.049 112.858C263.038 112.848 263.024 112.842 263.009 112.842C262.995 112.842 262.981 112.848 262.97 112.858C262.959 112.868 262.953 112.882 262.953 112.897Z" fill="black"/>
<path opacity="0.2" d="M264.894 112.995L265.142 116.267L265.389 119.53L265.528 121.369C265.534 121.441 265.647 121.442 265.642 121.369L265.394 118.097L265.147 114.834L265.007 112.995C265.002 112.923 264.888 112.922 264.894 112.995Z" fill="black"/>
<path opacity="0.2" d="M267.051 113.377L267.2 116.371C267.25 117.369 266.997 118.367 267.047 119.365L267.131 121.046C267.134 121.118 267.248 121.119 267.244 121.046C267.194 120.048 267.448 119.05 267.398 118.052L267.248 115.058L267.164 113.377C267.161 113.304 267.047 113.303 267.051 113.377Z" fill="black"/>
<path d="M260.465 105.174C260.705 105.174 260.9 105.039 260.9 104.871C260.9 104.704 260.705 104.568 260.465 104.568C260.224 104.568 260.029 104.704 260.029 104.871C260.029 105.039 260.224 105.174 260.465 105.174Z" fill="#D9E2FF"/>
<path d="M263.23 105.856C263.471 105.856 263.666 105.721 263.666 105.553C263.666 105.386 263.471 105.25 263.23 105.25C262.99 105.25 262.795 105.386 262.795 105.553C262.795 105.721 262.99 105.856 263.23 105.856Z" fill="#277FFE"/>
<path d="M259.366 107.334C259.606 107.334 259.801 107.198 259.801 107.031C259.801 106.863 259.606 106.728 259.366 106.728C259.125 106.728 258.93 106.863 258.93 107.031C258.93 107.198 259.125 107.334 259.366 107.334Z" fill="#FF6584"/>
<path d="M262.969 107.733C263.121 107.733 263.244 107.648 263.244 107.542C263.244 107.436 263.121 107.35 262.969 107.35C262.817 107.35 262.694 107.436 262.694 107.542C262.694 107.648 262.817 107.733 262.969 107.733Z" fill="#D9E2FF"/>
<path d="M264.717 108.165C264.869 108.165 264.992 108.079 264.992 107.973C264.992 107.867 264.869 107.781 264.717 107.781C264.565 107.781 264.442 107.867 264.442 107.973C264.442 108.079 264.565 108.165 264.717 108.165Z" fill="#277FFE"/>
<path d="M262.274 109.098C262.426 109.098 262.55 109.013 262.55 108.907C262.55 108.801 262.426 108.715 262.274 108.715C262.122 108.715 261.999 108.801 261.999 108.907C261.999 109.013 262.122 109.098 262.274 109.098Z" fill="#FF6584"/>
<path d="M265.545 108.794C265.697 108.794 265.821 108.709 265.821 108.603C265.821 108.497 265.697 108.411 265.545 108.411C265.393 108.411 265.27 108.497 265.27 108.603C265.27 108.709 265.393 108.794 265.545 108.794Z" fill="#D9E2FF"/>
<path d="M267.293 109.225C267.446 109.225 267.569 109.14 267.569 109.034C267.569 108.928 267.446 108.842 267.293 108.842C267.141 108.842 267.018 108.928 267.018 109.034C267.018 109.14 267.141 109.225 267.293 109.225Z" fill="#277FFE"/>
<path d="M264.851 110.159C265.003 110.159 265.126 110.074 265.126 109.968C265.126 109.862 265.003 109.776 264.851 109.776C264.699 109.776 264.575 109.862 264.575 109.968C264.575 110.074 264.699 110.159 264.851 110.159Z" fill="#FF6584"/>
<path d="M258.447 107.784C258.467 107.633 258.399 107.499 258.294 107.485C258.19 107.471 258.088 107.581 258.067 107.732C258.046 107.882 258.115 108.016 258.219 108.031C258.324 108.045 258.426 107.935 258.447 107.784Z" fill="#D9E2FF"/>
<path d="M257.781 109.457C257.802 109.306 257.734 109.172 257.629 109.158C257.524 109.143 257.422 109.254 257.402 109.405C257.381 109.555 257.449 109.689 257.554 109.703C257.659 109.718 257.76 109.608 257.781 109.457Z" fill="#277FFE"/>
<path d="M257.19 106.91C257.21 106.759 257.142 106.625 257.037 106.611C256.933 106.596 256.831 106.707 256.81 106.857C256.789 107.008 256.857 107.142 256.962 107.156C257.067 107.171 257.169 107.06 257.19 106.91Z" fill="#FF6584"/>
<path d="M261.44 106.875C261.461 106.724 261.393 106.59 261.288 106.576C261.183 106.561 261.081 106.672 261.061 106.822C261.04 106.973 261.108 107.107 261.213 107.121C261.318 107.136 261.419 107.025 261.44 106.875Z" fill="#D9E2FF"/>
<path d="M260.775 108.547C260.795 108.397 260.727 108.263 260.622 108.249C260.518 108.234 260.416 108.345 260.395 108.495C260.374 108.646 260.442 108.78 260.547 108.794C260.652 108.809 260.754 108.698 260.775 108.547Z" fill="#277FFE"/>
<path d="M260.183 106C260.204 105.85 260.135 105.716 260.031 105.701C259.926 105.687 259.824 105.797 259.803 105.948C259.782 106.099 259.851 106.233 259.955 106.247C260.06 106.261 260.162 106.151 260.183 106Z" fill="#FF6584"/>
<path d="M262.251 105.023C262.271 104.873 262.203 104.739 262.098 104.724C261.994 104.71 261.892 104.82 261.871 104.971C261.85 105.122 261.918 105.255 262.023 105.27C262.128 105.284 262.23 105.174 262.251 105.023Z" fill="#277FFE"/>
<path d="M261.661 102.477C261.682 102.326 261.613 102.192 261.509 102.178C261.404 102.163 261.302 102.274 261.281 102.424C261.26 102.575 261.329 102.709 261.433 102.723C261.538 102.738 261.64 102.627 261.661 102.477Z" fill="#FF6584"/>
</g>
<defs>
<clipPath id="clip0_4_572">
<rect width="440" height="273.231" fill="white"/>
</clipPath>
</defs>
</svg>
