<svg width="98" height="98" viewBox="0 0 98 98" fill="none" xmlns="http://www.w3.org/2000/svg">
<path d="M24.5 89.8333H85.75V81.6666H24.549C22.6625 81.6177 20.4167 80.8704 20.4167 77.5833C20.4167 74.2962 22.6625 73.549 24.549 73.5H85.75V16.3333C85.75 11.8294 82.0872 8.16666 77.5833 8.16666H24.5C19.5755 8.16666 12.25 11.4292 12.25 20.4167V77.5833C12.25 86.5707 19.5755 89.8333 24.5 89.8333ZM20.4167 32.6667V20.4167C20.4167 17.1296 22.6625 16.3823 24.5 16.3333H77.5833V65.3333H20.4167V32.6667Z" fill="#277FFE"/>
<path d="M32.6665 24.5H69.4165V32.6667H32.6665V24.5Z" fill="#277FFE"/>
</svg>
