<svg width="96" height="96" viewBox="0 0 96 96" fill="none" xmlns="http://www.w3.org/2000/svg">
<g clip-path="url(#clip0_4_325)">
<path d="M48.1602 10L38.1202 20H58.1202L48.1602 10ZM16.0002 28V80H80.0002V28H16.0002ZM48.0002 0L68.0002 20H80.0002C82.122 20 84.1568 20.8429 85.6571 22.3431C87.1574 23.8434 88.0002 25.8783 88.0002 28V80C88.0002 82.1217 87.1574 84.1566 85.6571 85.6569C84.1568 87.1571 82.122 88 80.0002 88H16.0002C13.8785 88 11.8437 87.1571 10.3434 85.6569C8.8431 84.1566 8.00024 82.1217 8.00024 80V28C8.00024 25.8783 8.8431 23.8434 10.3434 22.3431C11.8437 20.8429 13.8785 20 16.0002 20H28.0002L48.0002 0ZM28.0002 72V56H48.0002V72H28.0002ZM56.0002 68V40H72.0002V68H56.0002ZM24.0002 48V36H44.0002V48H24.0002Z" fill="#277FFE"/>
</g>
<defs>
<clipPath id="clip0_4_325">
<rect width="96" height="96" fill="white"/>
</clipPath>
</defs>
</svg>
