<svg width="21" height="21" viewBox="0 0 21 21" fill="none" xmlns="http://www.w3.org/2000/svg">
<path d="M11.5084 10.6209L15.1987 6.93914C15.3603 6.77753 15.4511 6.55835 15.4511 6.3298C15.4511 6.10126 15.3603 5.88208 15.1987 5.72047C15.0371 5.55887 14.8179 5.46808 14.5894 5.46808C14.3608 5.46808 14.1416 5.55887 13.98 5.72047L10.2983 9.41079L6.61657 5.72047C6.45496 5.55887 6.23578 5.46808 6.00723 5.46808C5.77869 5.46808 5.55951 5.55887 5.3979 5.72047C5.2363 5.88208 5.14551 6.10126 5.14551 6.3298C5.14551 6.55835 5.2363 6.77753 5.3979 6.93914L9.08822 10.6209L5.3979 14.3026C5.31746 14.3824 5.25362 14.4773 5.21005 14.5819C5.16648 14.6865 5.14404 14.7987 5.14404 14.9119C5.14404 15.0252 5.16648 15.1374 5.21005 15.242C5.25362 15.3466 5.31746 15.4415 5.3979 15.5213C5.47768 15.6017 5.5726 15.6656 5.67718 15.7091C5.78177 15.7527 5.89394 15.7751 6.00723 15.7751C6.12053 15.7751 6.2327 15.7527 6.33728 15.7091C6.44186 15.6656 6.53678 15.6017 6.61657 15.5213L10.2983 11.831L13.98 15.5213C14.0598 15.6017 14.1547 15.6656 14.2593 15.7091C14.3639 15.7527 14.4761 15.7751 14.5894 15.7751C14.7027 15.7751 14.8148 15.7527 14.9194 15.7091C15.024 15.6656 15.1189 15.6017 15.1987 15.5213C15.2791 15.4415 15.343 15.3466 15.3866 15.242C15.4301 15.1374 15.4526 15.0252 15.4526 14.9119C15.4526 14.7987 15.4301 14.6865 15.3866 14.5819C15.343 14.4773 15.2791 14.3824 15.1987 14.3026L11.5084 10.6209Z" fill="#277FFE"/>
</svg>
