<svg width="20" height="20" viewBox="0 0 20 20" fill="none" xmlns="http://www.w3.org/2000/svg">
<path d="M17.9611 3.33333C17.8854 3.32552 17.809 3.32552 17.7333 3.33333H2.17775C2.07805 3.33486 1.97901 3.34981 1.8833 3.37777L9.91108 11.3722L17.9611 3.33333Z" fill="#277FFE"/>
<path d="M18.7833 4.10555L10.6944 12.1611C10.4862 12.3681 10.2046 12.4842 9.91108 12.4842C9.61754 12.4842 9.33593 12.3681 9.12774 12.1611L1.11108 4.16666C1.08643 4.25724 1.07337 4.35058 1.07219 4.44444V15.5556C1.07219 15.8502 1.18925 16.1329 1.39763 16.3412C1.606 16.5496 1.88862 16.6667 2.1833 16.6667H17.7389C18.0335 16.6667 18.3162 16.5496 18.5245 16.3412C18.7329 16.1329 18.85 15.8502 18.85 15.5556V4.44444C18.8455 4.32869 18.8231 4.21435 18.7833 4.10555ZM2.94441 15.5556H2.17219V14.7611L6.21108 10.7556L6.99441 11.5389L2.94441 15.5556ZM17.7277 15.5556H16.95L12.9 11.5389L13.6833 10.7556L17.7222 14.7611L17.7277 15.5556Z" fill="#277FFE"/>
</svg>
