<svg width="17" height="17" viewBox="0 0 17 17" fill="none" xmlns="http://www.w3.org/2000/svg">
<path opacity="0.5" d="M6.37499 4.95833C6.37499 3.75417 7.29583 2.83333 8.5 2.83333C9.70416 2.83333 10.625 3.75417 10.625 4.95833V6.375H12.0417V4.95833C12.0417 2.975 10.4833 1.41667 8.5 1.41667C6.51666 1.41667 4.95833 2.975 4.95833 4.95833V6.375H6.37499V4.95833ZM9.5625 10.2708C9.5625 9.70417 9.06666 9.20833 8.5 9.20833C7.93333 9.20833 7.43749 9.70417 7.43749 10.2708C7.43749 10.5542 7.57916 10.8375 7.79166 11.05V12.0417C7.79166 12.4667 8.075 12.75 8.5 12.75C8.925 12.75 9.20833 12.4667 9.20833 12.0417V11.05C9.42083 10.8375 9.5625 10.5542 9.5625 10.2708Z" fill="#277FFE"/>
<path d="M12.0417 6.375H4.95833C3.75416 6.375 2.83333 7.29583 2.83333 8.5V13.4583C2.83333 14.6625 3.75416 15.5833 4.95833 15.5833H12.0417C13.2458 15.5833 14.1667 14.6625 14.1667 13.4583V8.5C14.1667 7.29583 13.2458 6.375 12.0417 6.375ZM9.20833 11.05V12.0417C9.20833 12.4667 8.92499 12.75 8.49999 12.75C8.07499 12.75 7.79166 12.4667 7.79166 12.0417V11.05C7.57916 10.8375 7.43749 10.5542 7.43749 10.2708C7.43749 9.70417 7.93333 9.20833 8.49999 9.20833C9.06666 9.20833 9.56249 9.70417 9.56249 10.2708C9.56249 10.5542 9.42083 10.8375 9.20833 11.05Z" fill="#277FFE"/>
</svg>
