<svg width="96" height="96" viewBox="0 0 96 96" fill="none" xmlns="http://www.w3.org/2000/svg">
<path d="M45 60H51V72H45V60Z" fill="#277FFE"/>
<path d="M60 54H66V72H60V54Z" fill="#277FFE"/>
<path d="M30 42H36V72H30V42Z" fill="#277FFE"/>
<path d="M75 15H66V12C66 10.4087 65.3679 8.88258 64.2426 7.75736C63.1174 6.63214 61.5913 6 60 6H36C34.4087 6 32.8826 6.63214 31.7574 7.75736C30.6321 8.88258 30 10.4087 30 12V15H21C19.4087 15 17.8826 15.6321 16.7574 16.7574C15.6321 17.8826 15 19.4087 15 21V84C15 85.5913 15.6321 87.1174 16.7574 88.2426C17.8826 89.3679 19.4087 90 21 90H75C76.5913 90 78.1174 89.3679 79.2426 88.2426C80.3679 87.1174 81 85.5913 81 84V21C81 19.4087 80.3679 17.8826 79.2426 16.7574C78.1174 15.6321 76.5913 15 75 15ZM36 12H60V24H36V12ZM75 84H21V21H30V30H66V21H75V84Z" fill="#277FFE"/>
</svg>
