<svg width="96" height="84" viewBox="0 0 96 84" fill="none" xmlns="http://www.w3.org/2000/svg">
<path d="M96 78C96 79.625 95.4219 81.0312 94.2656 82.2188C93.1094 83.4062 91.6875 84 90 84H6C4.3125 84 2.89062 83.4062 1.73438 82.2188C0.578125 81.0312 0 79.625 0 78C0 76.9375 0.28125 75.9375 0.84375 75L42 6C42.5 4.875 42.8594 4.125 43.0781 3.75C43.2969 3.375 43.6719 2.79688 44.2031 2.01562C44.7344 1.23438 45.2969 0.703125 45.8906 0.421875C46.4844 0.140625 47.1875 0 48 0C49.0625 0 49.9844 0.3125 50.7656 0.9375C51.5469 1.5625 52.1406 2.23438 52.5469 2.95312C52.9531 3.67188 53.4375 4.6875 54 6L95.1562 75C95.7188 75.9375 96 76.9375 96 78ZM54 30C54 28.3125 53.4219 26.8906 52.2656 25.7344C51.1094 24.5781 49.6875 24 48 24C46.3125 24 44.8906 24.5781 43.7344 25.7344C42.5781 26.8906 42 28.3125 42 30V48C42 49.625 42.5938 51.0312 43.7812 52.2188C44.9688 53.4062 46.375 54 48 54C49.625 54 51.0312 53.4062 52.2188 52.2188C53.4062 51.0312 54 49.625 54 48V30ZM47.9531 60C46.2969 60 44.8906 60.5781 43.7344 61.7344C42.5781 62.8906 42 64.2969 42 65.9531C42 67.6094 42.5938 69.0312 43.7812 70.2188C44.9688 71.4062 46.375 72 48 72C49.625 72 51.0312 71.4062 52.2188 70.2188C53.4062 69.0312 54 67.6094 54 65.9531C54 64.2969 53.4062 62.8906 52.2188 61.7344C51.0312 60.5781 49.6094 60 47.9531 60Z" fill="#277FFE"/>
</svg>
